<?xml version="1.0" encoding="UTF-8" standalone="no"?>
<!-- Created with Inkscape (http://www.inkscape.org/) -->

<svg
   width="2048"
   height="2048"
   viewBox="0 0 541.86666 541.86667"
   version="1.1"
   id="svg5"
   inkscape:version="1.1 (c4e8f9ed74, 2021-05-24)"
   sodipodi:docname="Evernote.svg"
   inkscape:export-filename="/home/retro/Workspace/Icon-pack/Evernote.png"
   inkscape:export-xdpi="6"
   inkscape:export-ydpi="6"
   xmlns:inkscape="http://www.inkscape.org/namespaces/inkscape"
   xmlns:sodipodi="http://sodipodi.sourceforge.net/DTD/sodipodi-0.dtd"
   xmlns:xlink="http://www.w3.org/1999/xlink"
   xmlns="http://www.w3.org/2000/svg"
   xmlns:svg="http://www.w3.org/2000/svg">
  <sodipodi:namedview
     id="namedview7"
     pagecolor="#ffffff"
     bordercolor="#959191"
     borderopacity="1"
     inkscape:pageshadow="2"
     inkscape:pageopacity="0.0"
     inkscape:pagecheckerboard="true"
     inkscape:document-units="px"
     showgrid="false"
     inkscape:showpageshadow="false"
     inkscape:snap-page="true"
     inkscape:snap-bbox="true"
     inkscape:snap-object-midpoints="true"
     inkscape:zoom="0.16756394"
     inkscape:cx="1563.5822"
     inkscape:cy="990.66661"
     inkscape:window-width="1366"
     inkscape:window-height="731"
     inkscape:window-x="0"
     inkscape:window-y="0"
     inkscape:window-maximized="1"
     inkscape:current-layer="layer2" />
  <defs
     id="defs2">
    <linearGradient
       inkscape:collect="always"
       id="linearGradient1424">
      <stop
         style="stop-color:#00a82d;stop-opacity:1;"
         offset="0"
         id="stop1420" />
      <stop
         style="stop-color:#25d052;stop-opacity:1"
         offset="1"
         id="stop1422" />
    </linearGradient>
    <filter
       style="color-interpolation-filters:sRGB;"
       inkscape:label="Drop Shadow"
       id="filter1370"
       x="-0.054161668"
       y="-0.056942039"
       width="1.1083233"
       height="1.1138841">
      <feFlood
         flood-opacity="0.466667"
         flood-color="rgb(73,255,149)"
         result="flood"
         id="feFlood1360" />
      <feComposite
         in="flood"
         in2="SourceGraphic"
         operator="out"
         result="composite1"
         id="feComposite1362" />
      <feGaussianBlur
         in="composite1"
         stdDeviation="12.2285"
         result="blur"
         id="feGaussianBlur1364" />
      <feOffset
         dx="0"
         dy="0"
         result="offset"
         id="feOffset1366" />
      <feComposite
         in="offset"
         in2="SourceGraphic"
         operator="atop"
         result="composite2"
         id="feComposite1368" />
    </filter>
    <radialGradient
       inkscape:collect="always"
       xlink:href="#linearGradient1424"
       id="radialGradient1426"
       cx="270.93329"
       cy="257.70419"
       fx="270.93329"
       fy="257.70419"
       r="300.28172"
       gradientTransform="matrix(1.2978772,0,0,1.2406982,-80.704858,-62.028937)"
       gradientUnits="userSpaceOnUse" />
    <filter
       style="color-interpolation-filters:sRGB;"
       inkscape:label="Drop Shadow"
       id="filter12322"
       x="-0.031455609"
       y="-0.026887998"
       width="1.0629112"
       height="1.082111">
      <feFlood
         flood-opacity="0.34999999999999998"
         flood-color="rgb(0,0,0)"
         result="flood"
         id="feFlood12312" />
      <feComposite
         in="flood"
         in2="SourceGraphic"
         operator="in"
         result="composite1"
         id="feComposite12314" />
      <feGaussianBlur
         in="composite1"
         stdDeviation="3.95389"
         result="blur"
         id="feGaussianBlur12316" />
      <feOffset
         dx="0"
         dy="10"
         result="offset"
         id="feOffset12318"
         preserveAlpha="true" />
      <feComposite
         in="SourceGraphic"
         in2="offset"
         operator="over"
         result="composite2"
         id="feComposite12320" />
    </filter>
    <clipPath
       clipPathUnits="userSpaceOnUse"
       id="clipPath977">
      <rect
         style="fill:#02a847;fill-opacity:1;stroke:none;stroke-width:0.529037"
         id="rect979"
         width="541.86664"
         height="541.86664"
         x="-1.2551867e-05"
         y="1.9073486e-06"
         rx="79.375"
         ry="79.375" />
    </clipPath>
  </defs>
  <g
     inkscape:label="Layer 1"
     inkscape:groupmode="layer"
     id="layer1" />
  <g
     inkscape:groupmode="layer"
     id="layer2"
     inkscape:label="Layer 2">
    <g
       id="g868"
       clip-path="url(#clipPath977)">
      <g
         id="g857">
        <rect
           style="fill:#02a847;stroke:none;stroke-width:0.529037;fill-opacity:1"
           id="rect53"
           width="541.86664"
           height="541.86664"
           x="0"
           y="0"
           rx="79.375"
           ry="79.375" />
        <rect
           style="fill:url(#radialGradient1426);fill-opacity:1;stroke:none;stroke-width:0.515959;filter:url(#filter1370)"
           id="rect971"
           width="541.86664"
           height="515.40833"
           x="-2.2888184e-05"
           y="1.5258789e-05"
           rx="79.375"
           ry="75.499275" />
        <rect
           style="fill:#02a847;stroke:none;stroke-width:0.529037;fill-opacity:1"
           id="rect13623"
           width="541.86664"
           height="541.86664"
           x="0"
           y="0"
           rx="79.375"
           ry="79.375" />
        <rect
           style="fill:url(#radialGradient1426);fill-opacity:1;stroke:none;stroke-width:0.515959;filter:url(#filter1370)"
           id="rect13625"
           width="541.86664"
           height="515.40833"
           x="-2.2888184e-05"
           y="1.5258789e-05"
           rx="79.375"
           ry="75.499275" />
        <g
           id="g13513">
          <path
             class="st0"
             d="m 214.62258,173.77579 c 0,3.50425 -0.28768,9.36367 -3.82016,13.15506 -3.79138,3.50414 -9.6508,3.79138 -13.15494,3.79138 h -37.45425 c -10.82843,0 -17.26235,0 -21.65688,0.57428 -2.32651,0.28768 -5.25627,1.46488 -6.72115,2.03936 -0.57427,0.2866 -0.57427,0 -0.28768,-0.28767 l 85.42114,-86.85725 c 0.28768,-0.28768 0.57427,-0.28768 0.28768,0.28768 -0.57427,1.46477 -1.75213,4.39453 -2.03927,6.72104 -0.57427,4.39454 -0.57427,10.82844 -0.57427,21.65689 z m 79.59038,262.7834 c -9.93794,-6.43381 -15.22298,-14.93574 -17.26224,-20.19201 -2.03937,-4.96903 -3.21701,-10.5412 -3.21701,-16.08461 0,-24.29939 19.90487,-44.1755 44.49141,-44.1755 7.3243,0 13.15495,5.85942 13.15495,13.15506 0,4.96902 -2.64241,9.07632 -6.72104,11.40282 -1.46489,0.89018 -3.50415,1.46489 -4.96903,1.75213 -1.46488,0.28768 -7.0084,0.89018 -9.6508,3.2169 -2.92976,2.35528 -5.25627,6.14666 -5.25627,10.25395 0,4.39464 1.75212,8.50194 4.68177,11.40293 5.25627,5.25627 12.29333,8.18593 19.90477,8.18593 19.90486,0 35.98947,-16.08461 35.98947,-35.98947 0,-17.83673 -12.00608,-33.66286 -27.80344,-40.67126 -2.32662,-1.17763 -6.14666,-2.03926 -9.65081,-2.92965 -4.39464,-0.89017 -8.47317,-1.46488 -8.78917,-1.46488 -12.32199,-1.46489 -43.05519,-11.11569 -45.09456,-38.31598 0,0 -9.07632,40.9585 -27.22906,52.07408 -1.75202,0.89017 -4.10729,1.75213 -6.72105,2.35527 -2.61374,0.60358 -5.57216,0.86195 -6.4339,0.86195 -29.55557,1.75212 -60.86326,-7.61143 -82.52014,-29.84281 0,0 -14.61983,-12.00608 -22.23127,-45.64027 -1.75212,-8.18593 -5.25627,-22.83453 -7.32429,-36.59262 -0.89018,-4.96903 -1.17764,-8.76042 -1.46488,-12.29333 0,-14.33259 8.78917,-23.98338 19.90486,-25.44826 0.28768,0 1.17752,0 1.75202,0 6.72115,0 57.9336,0 57.9336,0 10.25395,0 16.08461,-2.64253 19.90476,-6.14667 4.96902,-4.68178 6.14666,-11.40282 6.14666,-19.30161 0,0 0,-53.25171 0,-60.00152 0,-0.28768 0,-1.46488 0,-1.75213 1.46488,-10.82844 11.11557,-19.904757 25.44827,-19.904757 0,0 4.39454,0 7.03695,0 2.92976,0 6.4339,0.28768 9.6508,0.57428 2.35528,0.28767 4.39465,0.89017 7.89879,1.75212 17.83673,4.394537 21.65688,22.518507 21.65688,22.518507 0,0 33.66286,5.85942 50.63797,8.78918 16.08471,2.92966 55.89423,5.57217 63.50577,45.64028 17.83673,95.38784 7.03705,187.87469 6.14667,187.87469 -12.58058,90.13168 -87.48917,85.73714 -87.48917,85.73714 -16.14214,0.0326 -28.11945,-5.25627 -36.01824,-10.79978 z M 361.51012,244.8931 c -9.6508,-0.89018 -17.83672,2.92965 -20.7665,10.25395 -0.57427,1.46489 -1.17763,3.2169 -0.89016,4.1073 0.28767,0.89017 0.89016,1.17763 1.46488,1.46488 3.50414,1.75213 9.36355,2.64252 17.83673,3.50414 8.47328,0.89018 14.33269,1.46488 18.15274,0.89018 0.57427,0 1.17763,-0.28768 1.75212,-1.17764 0.57427,-0.89017 0.28768,-2.64241 0.28768,-4.10729 -1.14897,-8.21469 -8.18603,-13.78687 -17.83684,-14.93574 z"
             id="path36"
             style="fill:#dbffe5;fill-opacity:1;stroke:none;stroke-width:2.87226;filter:url(#filter12322)" />
        </g>
      </g>
    </g>
  </g>
  <style
     type="text/css"
     id="style34"><![CDATA[
	.st0{fill:#00A82D;}
]]></style>
</svg>
