<?xml version="1.0" encoding="UTF-8" standalone="no"?>
<!-- Created with Inkscape (http://www.inkscape.org/) -->

<svg
   width="2048"
   height="2048"
   viewBox="0 0 541.86666 541.86667"
   version="1.1"
   id="svg5"
   inkscape:version="1.1 (c4e8f9ed74, 2021-05-24)"
   sodipodi:docname="libreoffice-main.svg"
   xmlns:inkscape="http://www.inkscape.org/namespaces/inkscape"
   xmlns:sodipodi="http://sodipodi.sourceforge.net/DTD/sodipodi-0.dtd"
   xmlns:xlink="http://www.w3.org/1999/xlink"
   xmlns="http://www.w3.org/2000/svg"
   xmlns:svg="http://www.w3.org/2000/svg">
  <sodipodi:namedview
     id="namedview7"
     pagecolor="#ffffff"
     bordercolor="#959191"
     borderopacity="1"
     inkscape:pageshadow="2"
     inkscape:pageopacity="0.0"
     inkscape:pagecheckerboard="true"
     inkscape:document-units="px"
     showgrid="false"
     inkscape:showpageshadow="false"
     inkscape:snap-page="true"
     inkscape:snap-bbox="true"
     inkscape:bbox-nodes="true"
     inkscape:snap-object-midpoints="true"
     inkscape:bbox-paths="true"
     inkscape:snap-midpoints="true"
     inkscape:object-paths="false"
     inkscape:zoom="0.14293882"
     inkscape:cx="493.21801"
     inkscape:cy="1259.28"
     inkscape:window-width="1366"
     inkscape:window-height="731"
     inkscape:window-x="0"
     inkscape:window-y="0"
     inkscape:window-maximized="1"
     inkscape:current-layer="layer1"
     inkscape:snap-bbox-edge-midpoints="false"
     inkscape:snap-global="true"
     inkscape:snap-bbox-midpoints="true"
     inkscape:object-nodes="false" />
  <defs
     id="defs2">
    <filter
       style="color-interpolation-filters:sRGB;"
       inkscape:label="Drop Shadow"
       id="filter23799"
       x="-0.052701425"
       y="-0.078751954"
       width="1.1054028"
       height="1.2061549">
      <feFlood
         flood-opacity="0.858824"
         flood-color="rgb(2,153,65)"
         result="flood"
         id="feFlood23789" />
      <feComposite
         in="flood"
         in2="SourceGraphic"
         operator="out"
         result="composite1"
         id="feComposite23791" />
      <feGaussianBlur
         in="composite1"
         stdDeviation="8.95341"
         result="blur"
         id="feGaussianBlur23793" />
      <feOffset
         dx="0"
         dy="13.346"
         result="offset"
         id="feOffset23795" />
      <feComposite
         in="offset"
         in2="SourceGraphic"
         operator="atop"
         result="composite2"
         id="feComposite23797" />
    </filter>
    <filter
       style="color-interpolation-filters:sRGB;"
       inkscape:label="Drop Shadow"
       id="filter24873"
       x="-0.025002506"
       y="-0.026286001"
       width="1.050005"
       height="1.052572">
      <feFlood
         flood-opacity="0.858824"
         flood-color="rgb(255,255,255)"
         result="flood"
         id="feFlood24863" />
      <feComposite
         in="flood"
         in2="SourceGraphic"
         operator="out"
         result="composite1"
         id="feComposite24865" />
      <feGaussianBlur
         in="composite1"
         stdDeviation="5.64501"
         result="blur"
         id="feGaussianBlur24867" />
      <feOffset
         dx="0"
         dy="0"
         result="offset"
         id="feOffset24869" />
      <feComposite
         in="offset"
         in2="SourceGraphic"
         operator="atop"
         result="composite2"
         id="feComposite24871" />
    </filter>
    <clipPath
       clipPathUnits="userSpaceOnUse"
       id="clipPath961">
      <rect
         style="fill:#00c853;stroke:none;stroke-width:0.529037"
         id="rect963"
         width="541.86664"
         height="541.86664"
         x="1.4210855e-14"
         y="2.717972e-05"
         rx="79.375"
         ry="79.375" />
    </clipPath>
    <filter
       style="color-interpolation-filters:sRGB"
       inkscape:label="Drop Shadow"
       id="filter24873-3"
       x="-0.025002506"
       y="-0.026286001"
       width="1.050005"
       height="1.052572">
      <feFlood
         flood-opacity="0.858824"
         flood-color="rgb(255,255,255)"
         result="flood"
         id="feFlood24863-6" />
      <feComposite
         in="flood"
         in2="SourceGraphic"
         operator="out"
         result="composite1"
         id="feComposite24865-7" />
      <feGaussianBlur
         in="composite1"
         stdDeviation="5.64501"
         result="blur"
         id="feGaussianBlur24867-5" />
      <feOffset
         dx="0"
         dy="0"
         result="offset"
         id="feOffset24869-3" />
      <feComposite
         in="offset"
         in2="SourceGraphic"
         operator="atop"
         result="composite2"
         id="feComposite24871-5" />
    </filter>
    <filter
       style="color-interpolation-filters:sRGB;"
       inkscape:label="Drop Shadow"
       id="filter2176"
       x="-0.030322663"
       y="-0.047701881"
       width="1.0606453"
       height="1.1219048">
      <feFlood
         flood-opacity="1"
         flood-color="rgb(156,38,38)"
         result="flood"
         id="feFlood2166" />
      <feComposite
         in="flood"
         in2="SourceGraphic"
         operator="in"
         result="composite1"
         id="feComposite2168" />
      <feGaussianBlur
         in="composite1"
         stdDeviation="6"
         result="blur"
         id="feGaussianBlur2170" />
      <feOffset
         dx="0"
         dy="8"
         result="offset"
         id="feOffset2172" />
      <feComposite
         in="SourceGraphic"
         in2="offset"
         operator="over"
         result="composite2"
         id="feComposite2174" />
    </filter>
    <linearGradient
       y2="236"
       x2="96"
       y1="236"
       x1="32"
       gradientTransform="translate(604.81684,170.58641)"
       gradientUnits="userSpaceOnUse"
       id="linearGradient1099"
       xlink:href="#linearGradient1036" />
    <linearGradient
       id="linearGradient1036">
      <stop
         id="stop1032"
         offset="0"
         style="stop-color:#d5d3cf;stop-opacity:1;" />
      <stop
         id="stop1034"
         offset="1"
         style="stop-color:#f6f5f4;stop-opacity:1" />
    </linearGradient>
    <radialGradient
       r="32"
       fy="-76"
       fx="-244"
       cy="-76"
       cx="-244"
       gradientTransform="matrix(0.88333331,0,0,0.88333331,-460.35018,463.11973)"
       gradientUnits="userSpaceOnUse"
       id="radialGradient1103"
       xlink:href="#linearGradient1069" />
    <linearGradient
       id="linearGradient1069">
      <stop
         id="stop1065"
         offset="0"
         style="stop-color:#d5d3cf;stop-opacity:1" />
      <stop
         id="stop1067-1"
         offset="1"
         style="stop-color:#949390;stop-opacity:1" />
    </linearGradient>
    <linearGradient
       gradientUnits="userSpaceOnUse"
       y2="232"
       x2="64"
       y1="262.5"
       x1="64"
       id="linearGradient1027"
       xlink:href="#linearGradient1025"
       gradientTransform="translate(-470.5864,432.81685)" />
    <linearGradient
       id="linearGradient1025">
      <stop
         id="stop1021"
         offset="0"
         style="stop-color:#9a9996;stop-opacity:1" />
      <stop
         id="stop1023"
         offset="1"
         style="stop-color:#77767b;stop-opacity:1" />
    </linearGradient>
    <inkscape:path-effect
       effect="spiro"
       id="path-effect35304-9"
       is_visible="true" />
    <clipPath
       clipPathUnits="userSpaceOnUse"
       id="clipPath1440">
      <circle
         style="display:inline;opacity:1;vector-effect:none;fill:none;fill-opacity:1;stroke:#000000;stroke-width:2;stroke-linecap:butt;stroke-linejoin:miter;stroke-miterlimit:4;stroke-dasharray:none;stroke-dashoffset:0;stroke-opacity:1;marker:none;marker-start:none;marker-mid:none;marker-end:none;paint-order:normal;enable-background:new"
         id="circle1442"
         cx="-134.35028"
         cy="193.74727"
         r="24"
         transform="rotate(-45)" />
    </clipPath>
    <clipPath
       clipPathUnits="userSpaceOnUse"
       id="clipPath1430">
      <circle
         style="display:inline;opacity:1;vector-effect:none;fill:none;fill-opacity:1;stroke:#000000;stroke-width:2;stroke-linecap:butt;stroke-linejoin:miter;stroke-miterlimit:4;stroke-dasharray:none;stroke-dashoffset:0;stroke-opacity:1;marker:none;marker-start:none;marker-mid:none;marker-end:none;paint-order:normal;enable-background:new"
         id="circle1432"
         cx="12"
         cy="232"
         r="24" />
    </clipPath>
    <clipPath
       clipPathUnits="userSpaceOnUse"
       id="clipPath1440-9">
      <circle
         style="display:inline;opacity:1;vector-effect:none;fill:none;fill-opacity:1;stroke:#000000;stroke-width:2;stroke-linecap:butt;stroke-linejoin:miter;stroke-miterlimit:4;stroke-dasharray:none;stroke-dashoffset:0;stroke-opacity:1;marker:none;marker-start:none;marker-mid:none;marker-end:none;paint-order:normal;enable-background:new"
         id="circle1442-5"
         cx="-134.35028"
         cy="193.74727"
         r="24"
         transform="rotate(-45)" />
    </clipPath>
    <clipPath
       clipPathUnits="userSpaceOnUse"
       id="clipPath1430-1">
      <circle
         style="display:inline;opacity:1;vector-effect:none;fill:none;fill-opacity:1;stroke:#000000;stroke-width:2;stroke-linecap:butt;stroke-linejoin:miter;stroke-miterlimit:4;stroke-dasharray:none;stroke-dashoffset:0;stroke-opacity:1;marker:none;marker-start:none;marker-mid:none;marker-end:none;paint-order:normal;enable-background:new"
         id="circle1432-8"
         cx="12"
         cy="232"
         r="24" />
    </clipPath>
    <clipPath
       clipPathUnits="userSpaceOnUse"
       id="clipPath2024">
      <rect
         style="opacity:1;vector-effect:none;fill:#63452c;fill-opacity:1;stroke:none;stroke-width:4;stroke-linecap:round;stroke-linejoin:round;stroke-miterlimit:4;stroke-dasharray:none;stroke-dashoffset:0;stroke-opacity:1"
         id="rect2026"
         width="74"
         height="98"
         x="6"
         y="196" />
    </clipPath>
    <linearGradient
       id="linearGradient914"
       inkscape:collect="always">
      <stop
         id="stop910"
         offset="0"
         style="stop-color:#f6f5f4;stop-opacity:0.43700787" />
      <stop
         id="stop912"
         offset="1"
         style="stop-color:#deddda;stop-opacity:0;" />
    </linearGradient>
    <radialGradient
       gradientTransform="matrix(2.6086955,0,0,1.8410361,-102.95652,-748.94671)"
       gradientUnits="userSpaceOnUse"
       r="46"
       fy="296"
       fx="64.000008"
       cy="296"
       cx="64.000008"
       id="radialGradient916"
       xlink:href="#linearGradient914"
       inkscape:collect="always" />
    <filter
       style="color-interpolation-filters:sRGB;"
       inkscape:label="Drop Shadow"
       id="filter1507"
       x="-0.042822424"
       y="-0.044695823"
       width="1.0856448"
       height="1.1593469">
      <feFlood
         flood-opacity="0.282353"
         flood-color="rgb(0,0,0)"
         result="flood"
         id="feFlood1497" />
      <feComposite
         in="flood"
         in2="SourceGraphic"
         operator="in"
         result="composite1"
         id="feComposite1499" />
      <feGaussianBlur
         in="composite1"
         stdDeviation="1.99838"
         result="blur"
         id="feGaussianBlur1501" />
      <feOffset
         dx="0"
         dy="7.50659"
         result="offset"
         id="feOffset1503" />
      <feComposite
         in="SourceGraphic"
         in2="offset"
         operator="over"
         result="composite2"
         id="feComposite1505" />
    </filter>
    <clipPath
       clipPathUnits="userSpaceOnUse"
       id="clipPath11543">
      <rect
         style="fill:#f0c04e;fill-opacity:1;stroke:none;stroke-width:0.529037"
         id="rect11545"
         width="541.86664"
         height="541.86664"
         x="1.4746095e-06"
         y="6.4330168e-05"
         rx="79.375"
         ry="79.375" />
    </clipPath>
    <filter
       style="color-interpolation-filters:sRGB"
       inkscape:label="Drop Shadow"
       id="filter24873-3-3"
       x="-0.025002506"
       y="-0.026286001"
       width="1.050005"
       height="1.052572">
      <feFlood
         flood-opacity="0.858824"
         flood-color="rgb(255,255,255)"
         result="flood"
         id="feFlood24863-6-6" />
      <feComposite
         in="flood"
         in2="SourceGraphic"
         operator="out"
         result="composite1"
         id="feComposite24865-7-7" />
      <feGaussianBlur
         in="composite1"
         stdDeviation="5.64501"
         result="blur"
         id="feGaussianBlur24867-5-5" />
      <feOffset
         dx="0"
         dy="0"
         result="offset"
         id="feOffset24869-3-3" />
      <feComposite
         in="offset"
         in2="SourceGraphic"
         operator="atop"
         result="composite2"
         id="feComposite24871-5-5" />
    </filter>
    <path
       d="M29.5833333,0 L4.4375,0 C1.996875,0 0,1.996875 0,4.4375 L0,60.6458333 C0,63.0864583 1.996875,65.0833333 4.4375,65.0833333 L42.8958333,65.0833333 C45.3364583,65.0833333 47.3333333,63.0864583 47.3333333,60.6458333 L47.3333333,17.75 L29.5833333,0 Z"
       id="path-1" />
    <path
       d="M29.5833333,0 L4.4375,0 C1.996875,0 0,1.996875 0,4.4375 L0,60.6458333 C0,63.0864583 1.996875,65.0833333 4.4375,65.0833333 L42.8958333,65.0833333 C45.3364583,65.0833333 47.3333333,63.0864583 47.3333333,60.6458333 L47.3333333,17.75 L29.5833333,0 Z"
       id="path-3" />
    <path
       d="M29.5833333,0 L4.4375,0 C1.996875,0 0,1.996875 0,4.4375 L0,60.6458333 C0,63.0864583 1.996875,65.0833333 4.4375,65.0833333 L42.8958333,65.0833333 C45.3364583,65.0833333 47.3333333,63.0864583 47.3333333,60.6458333 L47.3333333,17.75 L29.5833333,0 Z"
       id="path-5" />
    <linearGradient
       x1="39.10381"
       y1="17.866311"
       x2="39.10381"
       y2="32.906355"
       id="linearGradient-7"
       gradientTransform="scale(1.0001124,0.99988761)"
       gradientUnits="userSpaceOnUse">
      <stop
         stop-color="#BF360C"
         stop-opacity="0.2"
         offset="0%"
         id="stop1489" />
      <stop
         stop-color="#BF360C"
         stop-opacity="0.02"
         offset="100%"
         id="stop1491" />
    </linearGradient>
    <path
       d="M29.5833333,0 L4.4375,0 C1.996875,0 0,1.996875 0,4.4375 L0,60.6458333 C0,63.0864583 1.996875,65.0833333 4.4375,65.0833333 L42.8958333,65.0833333 C45.3364583,65.0833333 47.3333333,63.0864583 47.3333333,60.6458333 L47.3333333,17.75 L29.5833333,0 Z"
       id="path-8" />
    <path
       d="M29.5833333,0 L4.4375,0 C1.996875,0 0,1.996875 0,4.4375 L0,60.6458333 C0,63.0864583 1.996875,65.0833333 4.4375,65.0833333 L42.8958333,65.0833333 C45.3364583,65.0833333 47.3333333,63.0864583 47.3333333,60.6458333 L47.3333333,17.75 L29.5833333,0 Z"
       id="path-10" />
    <path
       d="M29.5833333,0 L4.4375,0 C1.996875,0 0,1.996875 0,4.4375 L0,60.6458333 C0,63.0864583 1.996875,65.0833333 4.4375,65.0833333 L42.8958333,65.0833333 C45.3364583,65.0833333 47.3333333,63.0864583 47.3333333,60.6458333 L47.3333333,17.75 L29.5833333,0 Z"
       id="path-12" />
    <path
       d="M29.5833333,0 L4.4375,0 C1.996875,0 0,1.996875 0,4.4375 L0,60.6458333 C0,63.0864583 1.996875,65.0833333 4.4375,65.0833333 L42.8958333,65.0833333 C45.3364583,65.0833333 47.3333333,63.0864583 47.3333333,60.6458333 L47.3333333,17.75 L29.5833333,0 Z"
       id="path-14" />
    <path
       d="M29.5833333,0 L4.4375,0 C1.996875,0 0,1.996875 0,4.4375 L0,60.6458333 C0,63.0864583 1.996875,65.0833333 4.4375,65.0833333 L42.8958333,65.0833333 C45.3364583,65.0833333 47.3333333,63.0864583 47.3333333,60.6458333 L47.3333333,17.75 L29.5833333,0 Z"
       id="path-16" />
    <radialGradient
       cx="1.7583691"
       cy="1.5082694"
       fx="1.7583691"
       fy="1.5082694"
       r="89.498173"
       gradientTransform="matrix(4.8536604,0,0,6.6737828,-218.88257,354.51311)"
       id="radialGradient-18"
       gradientUnits="userSpaceOnUse">
      <stop
         stop-color="#FFFFFF"
         stop-opacity="0.1"
         offset="0%"
         id="stop1499" />
      <stop
         stop-color="#FFFFFF"
         stop-opacity="0"
         offset="100%"
         id="stop1501" />
    </radialGradient>
    <filter
       style="color-interpolation-filters:sRGB;"
       inkscape:label="Drop Shadow"
       id="filter23799-5"
       x="-0.052701425"
       y="-0.078751954"
       width="1.1054028"
       height="1.2061549">
      <feFlood
         flood-opacity="0.858824"
         flood-color="rgb(2,153,65)"
         result="flood"
         id="feFlood23789-3" />
      <feComposite
         in="flood"
         in2="SourceGraphic"
         operator="out"
         result="composite1"
         id="feComposite23791-5" />
      <feGaussianBlur
         in="composite1"
         stdDeviation="8.95341"
         result="blur"
         id="feGaussianBlur23793-6" />
      <feOffset
         dx="0"
         dy="13.346"
         result="offset"
         id="feOffset23795-2" />
      <feComposite
         in="offset"
         in2="SourceGraphic"
         operator="atop"
         result="composite2"
         id="feComposite23797-9" />
    </filter>
    <filter
       style="color-interpolation-filters:sRGB;"
       inkscape:label="Drop Shadow"
       id="filter24873-1"
       x="-0.025002506"
       y="-0.026286001"
       width="1.050005"
       height="1.052572">
      <feFlood
         flood-opacity="0.858824"
         flood-color="rgb(255,255,255)"
         result="flood"
         id="feFlood24863-2" />
      <feComposite
         in="flood"
         in2="SourceGraphic"
         operator="out"
         result="composite1"
         id="feComposite24865-70" />
      <feGaussianBlur
         in="composite1"
         stdDeviation="5.64501"
         result="blur"
         id="feGaussianBlur24867-9" />
      <feOffset
         dx="0"
         dy="0"
         result="offset"
         id="feOffset24869-36" />
      <feComposite
         in="offset"
         in2="SourceGraphic"
         operator="atop"
         result="composite2"
         id="feComposite24871-0" />
    </filter>
    <clipPath
       clipPathUnits="userSpaceOnUse"
       id="clipPath961-6">
      <rect
         style="fill:#00c853;stroke:none;stroke-width:0.529037"
         id="rect963-2"
         width="541.86664"
         height="541.86664"
         x="1.4210855e-14"
         y="2.717972e-05"
         rx="79.375"
         ry="79.375" />
    </clipPath>
    <filter
       style="color-interpolation-filters:sRGB"
       inkscape:label="Drop Shadow"
       id="filter24873-3-6"
       x="-0.025002506"
       y="-0.026286001"
       width="1.050005"
       height="1.052572">
      <feFlood
         flood-opacity="0.858824"
         flood-color="rgb(255,255,255)"
         result="flood"
         id="feFlood24863-6-1" />
      <feComposite
         in="flood"
         in2="SourceGraphic"
         operator="out"
         result="composite1"
         id="feComposite24865-7-8" />
      <feGaussianBlur
         in="composite1"
         stdDeviation="5.64501"
         result="blur"
         id="feGaussianBlur24867-5-7" />
      <feOffset
         dx="0"
         dy="0"
         result="offset"
         id="feOffset24869-3-9" />
      <feComposite
         in="offset"
         in2="SourceGraphic"
         operator="atop"
         result="composite2"
         id="feComposite24871-5-2" />
    </filter>
    <filter
       style="color-interpolation-filters:sRGB;"
       inkscape:label="Drop Shadow"
       id="filter2176-0"
       x="-0.030322663"
       y="-0.047701881"
       width="1.0606453"
       height="1.1219048">
      <feFlood
         flood-opacity="1"
         flood-color="rgb(156,38,38)"
         result="flood"
         id="feFlood2166-2" />
      <feComposite
         in="flood"
         in2="SourceGraphic"
         operator="in"
         result="composite1"
         id="feComposite2168-3" />
      <feGaussianBlur
         in="composite1"
         stdDeviation="6"
         result="blur"
         id="feGaussianBlur2170-7" />
      <feOffset
         dx="0"
         dy="8"
         result="offset"
         id="feOffset2172-5" />
      <feComposite
         in="SourceGraphic"
         in2="offset"
         operator="over"
         result="composite2"
         id="feComposite2174-9" />
    </filter>
    <radialGradient
       r="32"
       fy="-76"
       fx="-244"
       cy="-76"
       cx="-244"
       gradientTransform="matrix(0.88333331,0,0,0.88333331,-460.35018,463.11973)"
       gradientUnits="userSpaceOnUse"
       id="radialGradient1103-8"
       xlink:href="#linearGradient1069" />
    <clipPath
       clipPathUnits="userSpaceOnUse"
       id="clipPath1440-1">
      <circle
         style="display:inline;opacity:1;vector-effect:none;fill:none;fill-opacity:1;stroke:#000000;stroke-width:2;stroke-linecap:butt;stroke-linejoin:miter;stroke-miterlimit:4;stroke-dasharray:none;stroke-dashoffset:0;stroke-opacity:1;marker:none;marker-start:none;marker-mid:none;marker-end:none;paint-order:normal;enable-background:new"
         id="circle1442-2"
         cx="-134.35028"
         cy="193.74727"
         r="24"
         transform="rotate(-45)" />
    </clipPath>
    <clipPath
       clipPathUnits="userSpaceOnUse"
       id="clipPath1430-9">
      <circle
         style="display:inline;opacity:1;vector-effect:none;fill:none;fill-opacity:1;stroke:#000000;stroke-width:2;stroke-linecap:butt;stroke-linejoin:miter;stroke-miterlimit:4;stroke-dasharray:none;stroke-dashoffset:0;stroke-opacity:1;marker:none;marker-start:none;marker-mid:none;marker-end:none;paint-order:normal;enable-background:new"
         id="circle1432-3"
         cx="12"
         cy="232"
         r="24" />
    </clipPath>
    <clipPath
       clipPathUnits="userSpaceOnUse"
       id="clipPath1440-9-1">
      <circle
         style="display:inline;opacity:1;vector-effect:none;fill:none;fill-opacity:1;stroke:#000000;stroke-width:2;stroke-linecap:butt;stroke-linejoin:miter;stroke-miterlimit:4;stroke-dasharray:none;stroke-dashoffset:0;stroke-opacity:1;marker:none;marker-start:none;marker-mid:none;marker-end:none;paint-order:normal;enable-background:new"
         id="circle1442-5-9"
         cx="-134.35028"
         cy="193.74727"
         r="24"
         transform="rotate(-45)" />
    </clipPath>
    <clipPath
       clipPathUnits="userSpaceOnUse"
       id="clipPath1430-1-4">
      <circle
         style="display:inline;opacity:1;vector-effect:none;fill:none;fill-opacity:1;stroke:#000000;stroke-width:2;stroke-linecap:butt;stroke-linejoin:miter;stroke-miterlimit:4;stroke-dasharray:none;stroke-dashoffset:0;stroke-opacity:1;marker:none;marker-start:none;marker-mid:none;marker-end:none;paint-order:normal;enable-background:new"
         id="circle1432-8-7"
         cx="12"
         cy="232"
         r="24" />
    </clipPath>
    <clipPath
       clipPathUnits="userSpaceOnUse"
       id="clipPath2024-8">
      <rect
         style="opacity:1;vector-effect:none;fill:#63452c;fill-opacity:1;stroke:none;stroke-width:4;stroke-linecap:round;stroke-linejoin:round;stroke-miterlimit:4;stroke-dasharray:none;stroke-dashoffset:0;stroke-opacity:1"
         id="rect2026-4"
         width="74"
         height="98"
         x="6"
         y="196" />
    </clipPath>
    <radialGradient
       gradientTransform="matrix(2.6086955,0,0,1.8410361,-102.95652,-748.94671)"
       gradientUnits="userSpaceOnUse"
       r="46"
       fy="296"
       fx="64.000008"
       cy="296"
       cx="64.000008"
       id="radialGradient916-3"
       xlink:href="#linearGradient914"
       inkscape:collect="always" />
    <filter
       style="color-interpolation-filters:sRGB;"
       inkscape:label="Drop Shadow"
       id="filter1507-6"
       x="-0.042822424"
       y="-0.044695823"
       width="1.0856448"
       height="1.1593469">
      <feFlood
         flood-opacity="0.282353"
         flood-color="rgb(0,0,0)"
         result="flood"
         id="feFlood1497-1" />
      <feComposite
         in="flood"
         in2="SourceGraphic"
         operator="in"
         result="composite1"
         id="feComposite1499-0" />
      <feGaussianBlur
         in="composite1"
         stdDeviation="1.99838"
         result="blur"
         id="feGaussianBlur1501-6" />
      <feOffset
         dx="0"
         dy="7.50659"
         result="offset"
         id="feOffset1503-3" />
      <feComposite
         in="SourceGraphic"
         in2="offset"
         operator="over"
         result="composite2"
         id="feComposite1505-2" />
    </filter>
    <clipPath
       clipPathUnits="userSpaceOnUse"
       id="clipPath11543-0">
      <rect
         style="fill:#f0c04e;fill-opacity:1;stroke:none;stroke-width:0.529037"
         id="rect11545-6"
         width="541.86664"
         height="541.86664"
         x="1.4746095e-06"
         y="6.4330168e-05"
         rx="79.375"
         ry="79.375" />
    </clipPath>
    <filter
       style="color-interpolation-filters:sRGB"
       inkscape:label="Drop Shadow"
       id="filter24873-3-3-1"
       x="-0.025002506"
       y="-0.026286001"
       width="1.050005"
       height="1.052572">
      <feFlood
         flood-opacity="0.7760250796178344"
         flood-color="rgb(192,191,188)"
         result="flood"
         id="feFlood24863-6-6-5" />
      <feComposite
         in="flood"
         in2="SourceGraphic"
         operator="out"
         result="composite1"
         id="feComposite24865-7-7-5" />
      <feGaussianBlur
         in="composite1"
         stdDeviation="5.64501"
         result="blur"
         id="feGaussianBlur24867-5-5-4" />
      <feOffset
         dx="0"
         dy="0"
         result="offset"
         id="feOffset24869-3-3-7" />
      <feComposite
         in="offset"
         in2="SourceGraphic"
         operator="atop"
         result="composite2"
         id="feComposite24871-5-5-6" />
    </filter>
    <path
       d="M29.5833333,0 L4.4375,0 C1.996875,0 0,1.996875 0,4.4375 L0,60.6458333 C0,63.0864583 1.996875,65.0833333 4.4375,65.0833333 L42.8958333,65.0833333 C45.3364583,65.0833333 47.3333333,63.0864583 47.3333333,60.6458333 L47.3333333,17.75 L29.5833333,0 Z"
       id="path-1-5" />
    <path
       d="M29.5833333,0 L4.4375,0 C1.996875,0 0,1.996875 0,4.4375 L0,60.6458333 C0,63.0864583 1.996875,65.0833333 4.4375,65.0833333 L42.8958333,65.0833333 C45.3364583,65.0833333 47.3333333,63.0864583 47.3333333,60.6458333 L47.3333333,17.75 L29.5833333,0 Z"
       id="path-3-69" />
    <path
       d="M29.5833333,0 L4.4375,0 C1.996875,0 0,1.996875 0,4.4375 L0,60.6458333 C0,63.0864583 1.996875,65.0833333 4.4375,65.0833333 L42.8958333,65.0833333 C45.3364583,65.0833333 47.3333333,63.0864583 47.3333333,60.6458333 L47.3333333,17.75 L29.5833333,0 Z"
       id="path-5-3" />
    <linearGradient
       x1="39.10381"
       y1="17.866311"
       x2="39.10381"
       y2="32.906355"
       id="linearGradient-7-7"
       gradientTransform="scale(1.0001124,0.99988761)"
       gradientUnits="userSpaceOnUse">
      <stop
         stop-color="#BF360C"
         stop-opacity="0.2"
         offset="0%"
         id="stop2366" />
      <stop
         stop-color="#BF360C"
         stop-opacity="0.02"
         offset="100%"
         id="stop2368" />
    </linearGradient>
    <path
       d="M29.5833333,0 L4.4375,0 C1.996875,0 0,1.996875 0,4.4375 L0,60.6458333 C0,63.0864583 1.996875,65.0833333 4.4375,65.0833333 L42.8958333,65.0833333 C45.3364583,65.0833333 47.3333333,63.0864583 47.3333333,60.6458333 L47.3333333,17.75 L29.5833333,0 Z"
       id="path-8-4" />
    <path
       d="M29.5833333,0 L4.4375,0 C1.996875,0 0,1.996875 0,4.4375 L0,60.6458333 C0,63.0864583 1.996875,65.0833333 4.4375,65.0833333 L42.8958333,65.0833333 C45.3364583,65.0833333 47.3333333,63.0864583 47.3333333,60.6458333 L47.3333333,17.75 L29.5833333,0 Z"
       id="path-10-52" />
    <path
       d="M29.5833333,0 L4.4375,0 C1.996875,0 0,1.996875 0,4.4375 L0,60.6458333 C0,63.0864583 1.996875,65.0833333 4.4375,65.0833333 L42.8958333,65.0833333 C45.3364583,65.0833333 47.3333333,63.0864583 47.3333333,60.6458333 L47.3333333,17.75 L29.5833333,0 Z"
       id="path-12-5" />
    <path
       d="M29.5833333,0 L4.4375,0 C1.996875,0 0,1.996875 0,4.4375 L0,60.6458333 C0,63.0864583 1.996875,65.0833333 4.4375,65.0833333 L42.8958333,65.0833333 C45.3364583,65.0833333 47.3333333,63.0864583 47.3333333,60.6458333 L47.3333333,17.75 L29.5833333,0 Z"
       id="path-14-4" />
    <path
       d="M29.5833333,0 L4.4375,0 C1.996875,0 0,1.996875 0,4.4375 L0,60.6458333 C0,63.0864583 1.996875,65.0833333 4.4375,65.0833333 L42.8958333,65.0833333 C45.3364583,65.0833333 47.3333333,63.0864583 47.3333333,60.6458333 L47.3333333,17.75 L29.5833333,0 Z"
       id="path-16-7" />
    <radialGradient
       cx="1.7583691"
       cy="1.5082694"
       fx="1.7583691"
       fy="1.5082694"
       r="89.498173"
       gradientTransform="scale(0.85280287,1.1726039)"
       id="radialGradient-18-4"
       gradientUnits="userSpaceOnUse">
      <stop
         stop-color="#FFFFFF"
         stop-opacity="0.1"
         offset="0%"
         id="stop2376" />
      <stop
         stop-color="#FFFFFF"
         stop-opacity="0"
         offset="100%"
         id="stop2378" />
    </radialGradient>
    <path
       d="M29.5833333,0 L4.4375,0 C1.996875,0 0,1.996875 0,4.4375 L0,60.6458333 C0,63.0864583 1.996875,65.0833333 4.4375,65.0833333 L42.8958333,65.0833333 C45.3364583,65.0833333 47.3333333,63.0864583 47.3333333,60.6458333 L47.3333333,17.75 L29.5833333,0 Z"
       id="path-1-3" />
    <path
       d="M29.5833333,0 L4.4375,0 C1.996875,0 0,1.996875 0,4.4375 L0,60.6458333 C0,63.0864583 1.996875,65.0833333 4.4375,65.0833333 L42.8958333,65.0833333 C45.3364583,65.0833333 47.3333333,63.0864583 47.3333333,60.6458333 L47.3333333,17.75 L29.5833333,0 Z"
       id="path-3-6" />
    <path
       d="M29.5833333,0 L4.4375,0 C1.996875,0 0,1.996875 0,4.4375 L0,60.6458333 C0,63.0864583 1.996875,65.0833333 4.4375,65.0833333 L42.8958333,65.0833333 C45.3364583,65.0833333 47.3333333,63.0864583 47.3333333,60.6458333 L47.3333333,17.75 L29.5833333,0 Z"
       id="path-5-7" />
    <path
       d="M29.5833333,0 L4.4375,0 C1.996875,0 0,1.996875 0,4.4375 L0,60.6458333 C0,63.0864583 1.996875,65.0833333 4.4375,65.0833333 L42.8958333,65.0833333 C45.3364583,65.0833333 47.3333333,63.0864583 47.3333333,60.6458333 L47.3333333,17.75 L29.5833333,0 Z"
       id="path-8-3" />
    <path
       d="M29.5833333,0 L4.4375,0 C1.996875,0 0,1.996875 0,4.4375 L0,60.6458333 C0,63.0864583 1.996875,65.0833333 4.4375,65.0833333 L42.8958333,65.0833333 C45.3364583,65.0833333 47.3333333,63.0864583 47.3333333,60.6458333 L47.3333333,17.75 L29.5833333,0 Z"
       id="path-10-5" />
    <path
       d="M29.5833333,0 L4.4375,0 C1.996875,0 0,1.996875 0,4.4375 L0,60.6458333 C0,63.0864583 1.996875,65.0833333 4.4375,65.0833333 L42.8958333,65.0833333 C45.3364583,65.0833333 47.3333333,63.0864583 47.3333333,60.6458333 L47.3333333,17.75 L29.5833333,0 Z"
       id="path-12-6" />
    <path
       d="M29.5833333,0 L4.4375,0 C1.996875,0 0,1.996875 0,4.4375 L0,60.6458333 C0,63.0864583 1.996875,65.0833333 4.4375,65.0833333 L42.8958333,65.0833333 C45.3364583,65.0833333 47.3333333,63.0864583 47.3333333,60.6458333 L47.3333333,17.75 L29.5833333,0 Z"
       id="path-14-2" />
    <path
       d="M29.5833333,0 L4.4375,0 C1.996875,0 0,1.996875 0,4.4375 L0,60.6458333 C0,63.0864583 1.996875,65.0833333 4.4375,65.0833333 L42.8958333,65.0833333 C45.3364583,65.0833333 47.3333333,63.0864583 47.3333333,60.6458333 L47.3333333,17.75 L29.5833333,0 Z"
       id="path-16-9" />
    <radialGradient
       cx="1.7583691"
       cy="1.5082694"
       fx="1.7583691"
       fy="1.5082694"
       r="89.498173"
       gradientTransform="matrix(4.8536604,0,0,6.6737828,136.23637,72.495826)"
       id="radialGradient-18-1"
       gradientUnits="userSpaceOnUse">
      <stop
         stop-color="#FFFFFF"
         stop-opacity="0.1"
         offset="0%"
         id="stop1046" />
      <stop
         stop-color="#FFFFFF"
         stop-opacity="0"
         offset="100%"
         id="stop1048" />
    </radialGradient>
    <clipPath
       clipPathUnits="userSpaceOnUse"
       id="clipPath1011">
      <rect
         style="fill:#fadd60;fill-opacity:1;stroke:none;stroke-width:0.529037"
         id="rect1013"
         width="541.86664"
         height="541.86664"
         x="6.7041015e-06"
         y="-1.1368684e-13"
         rx="79.375"
         ry="79.375" />
    </clipPath>
    <clipPath
       clipPathUnits="userSpaceOnUse"
       id="clipPath1489">
      <rect
         style="fill:#fadd60;fill-opacity:1;stroke:none;stroke-width:0.529037"
         id="rect1491"
         width="541.86664"
         height="541.86664"
         x="1.3408203e-05"
         y="-1.0658141e-13"
         rx="79.375"
         ry="79.375" />
    </clipPath>
    <filter
       style="color-interpolation-filters:sRGB;"
       inkscape:label="Drop Shadow"
       id="filter1052"
       x="-0.11136106"
       y="-0.080989868"
       width="1.2227221"
       height="1.2375703">
      <feFlood
         flood-opacity="0.26569964171974525"
         flood-color="rgb(0,0,0)"
         result="flood"
         id="feFlood1042" />
      <feComposite
         in="flood"
         in2="SourceGraphic"
         operator="in"
         result="composite1"
         id="feComposite1044" />
      <feGaussianBlur
         in="composite1"
         stdDeviation="12.5"
         result="blur"
         id="feGaussianBlur1046" />
      <feOffset
         dx="0"
         dy="28"
         result="offset"
         id="feOffset1048" />
      <feComposite
         in="SourceGraphic"
         in2="offset"
         operator="over"
         result="composite2"
         id="feComposite1050" />
    </filter>
    <clipPath
       clipPathUnits="userSpaceOnUse"
       id="clipPath1123">
      <rect
         style="fill:#fadd60;fill-opacity:1;stroke:none;stroke-width:0.529037"
         id="rect1125"
         width="541.86664"
         height="541.86664"
         x="1.3490107e-05"
         y="-1.1205673e-05"
         rx="79.375"
         ry="79.375" />
    </clipPath>
    <filter
       style="color-interpolation-filters:sRGB;"
       inkscape:label="Drop Shadow"
       id="filter32218"
       x="-0.020561887"
       y="-0.014954101"
       width="1.0411238"
       height="1.0455169">
      <feFlood
         flood-opacity="0.192157"
         flood-color="rgb(0,0,0)"
         result="flood"
         id="feFlood32208" />
      <feComposite
         in="flood"
         in2="SourceGraphic"
         operator="in"
         result="composite1"
         id="feComposite32210" />
      <feGaussianBlur
         in="composite1"
         stdDeviation="2.30802"
         result="blur"
         id="feGaussianBlur32212" />
      <feOffset
         dx="0"
         dy="5.78172"
         result="offset"
         id="feOffset32214" />
      <feComposite
         in="SourceGraphic"
         in2="offset"
         operator="over"
         result="composite2"
         id="feComposite32216" />
    </filter>
    <clipPath
       clipPathUnits="userSpaceOnUse"
       id="clipPath6963">
      <rect
         style="fill:#dd55ff;fill-opacity:1;stroke:none;stroke-width:0.529037"
         id="rect6965"
         width="541.86664"
         height="541.86664"
         x="1.1368684e-13"
         y="7.686157e-06"
         rx="79.375"
         ry="79.375" />
    </clipPath>
    <clipPath
       clipPathUnits="userSpaceOnUse"
       id="clipPath2226">
      <rect
         style="fill:#808080;fill-opacity:1;stroke:none;stroke-width:0.529037"
         id="rect2228"
         width="541.86664"
         height="541.86664"
         x="1.3408203e-05"
         y="5.6843419e-14"
         rx="79.375"
         ry="79.375" />
    </clipPath>
    <mask
       id="mask-9-4"
       fill="#ffffff">
      <use
         xlink:href="#path-8-3"
         id="use1076"
         x="0"
         y="0"
         width="100%"
         height="100%" />
    </mask>
    <mask
       id="mask-6-8"
       fill="#ffffff">
      <use
         xlink:href="#path-5-7"
         id="use1067"
         x="0"
         y="0"
         width="100%"
         height="100%" />
    </mask>
    <mask
       id="mask-2-8"
       fill="#ffffff">
      <use
         xlink:href="#path-1-3"
         id="use1053"
         x="0"
         y="0"
         width="100%"
         height="100%" />
    </mask>
    <mask
       id="mask-15-9"
       fill="#ffffff">
      <use
         xlink:href="#path-14-2"
         id="use1106"
         x="0"
         y="0"
         width="100%"
         height="100%" />
    </mask>
    <mask
       id="mask-13-4"
       fill="#ffffff">
      <use
         xlink:href="#path-12-6"
         id="use1097"
         x="0"
         y="0"
         width="100%"
         height="100%" />
    </mask>
  </defs>
  <g
     inkscape:label="Layer 1"
     inkscape:groupmode="layer"
     id="layer1">
    <rect
       style="fill:#b3b3b3;fill-opacity:1;stroke:none;stroke-width:0.529037"
       id="rect53-3"
       width="541.86664"
       height="541.86664"
       x="2.6816406e-05"
       y="2.6816406e-05"
       rx="79.375"
       ry="79.375" />
    <rect
       style="fill:#e6e6e6;fill-opacity:1;stroke:none;stroke-width:0.515959;filter:url(#filter24873-3-3-1)"
       id="rect52-0"
       width="541.86664"
       height="515.40833"
       x="2.6816406e-05"
       y="2.6816406e-05"
       rx="79.375"
       ry="75.499268" />
    <g
       id="SVGID_1_-6"
       style="fill:#e6e6e6;fill-rule:evenodd;stroke:none;stroke-width:0.0464881"
       transform="matrix(5.6914213,0,0,5.6914213,136.23641,72.495855)" />
    <g
       id="g1070"
       style="fill:#cccccc;fill-rule:evenodd;stroke:none;stroke-width:0.0464881"
       transform="matrix(5.6914213,0,0,5.6914213,136.23641,72.495855)" />
    <g
       id="g1079"
       style="fill:#ffffff;fill-rule:evenodd;stroke:none;stroke-width:0.0464881"
       transform="matrix(5.6914213,0,0,5.6914213,136.23641,72.495855)" />
    <g
       id="g1100"
       style="fill:none;fill-rule:evenodd;stroke:none;stroke-width:0.0464881"
       transform="matrix(5.6914213,0,0,5.6914213,136.23641,72.495855)" />
    <g
       id="g1109"
       style="fill:none;fill-rule:evenodd;stroke:none;stroke-width:0.0464881"
       transform="matrix(5.6914213,0,0,5.6914213,136.23641,72.495855)" />
    <g
       id="g8426"
       style="filter:url(#filter1052)">
      <path
         d="M 29.583333,0 H 4.4375 C 1.996875,0 0,1.996875 0,4.4375 v 56.208333 c 0,2.440625 1.996875,4.4375 4.4375,4.4375 h 38.458333 c 2.440625,0 4.4375,-1.996875 4.4375,-4.4375 V 17.75 L 36.979167,10.354167 Z"
         id="Path-8"
         fill="#f4b400"
         fill-rule="nonzero"
         mask="url(#mask-2-8)"
         style="fill:#808080;stroke:none;stroke-width:0.00216114;fill-opacity:1"
         transform="matrix(5.6914213,0,0,5.6914213,136.23641,72.495855)" />
      <polygon
         id="polygon1072"
         fill="url(#linearGradient-7)"
         fill-rule="nonzero"
         mask="url(#mask-6-8)"
         points="47.333333,17.75 30.881302,16.452031 47.333333,32.900365 "
         style="fill:#666666;stroke:none;stroke-width:0.00216114"
         transform="matrix(5.6914213,0,0,5.6914213,136.23641,72.495855)" />
      <g
         id="Group-3"
         mask="url(#mask-9-4)"
         style="fill:#b3b3b3;fill-rule:evenodd;stroke:none;stroke-width:0.0464881"
         transform="matrix(5.6914213,0,0,5.6914213,136.23641,72.495855)">
        <g
           transform="translate(26.625,-2.958333)"
           id="g1083"
           style="fill:#b3b3b3;stroke-width:0.0464881">
          <path
             d="M 2.9583333,2.9583333 V 16.270833 c 0,2.451719 1.9857813,4.4375 4.4375,4.4375 H 20.708333 Z"
             id="path1081"
             fill="#fada80"
             fill-rule="nonzero"
             style="fill:#b3b3b3;stroke-width:0.00216114" />
        </g>
      </g>
      <path
         d="M 4.4375,0 C 1.996875,0 0,1.996875 0,4.4375 V 4.8072917 C 0,2.3666667 1.996875,0.36979167 4.4375,0.36979167 H 29.583333 V 0 Z"
         id="path1102"
         fill-opacity="0.2"
         fill="#ffffff"
         fill-rule="nonzero"
         mask="url(#mask-13-4)"
         style="stroke:none;stroke-width:0.00216114"
         transform="matrix(5.6914213,0,0,5.6914213,136.23641,72.495855)" />
      <path
         d="M 42.895833,64.713542 H 4.4375 C 1.996875,64.713542 0,62.716667 0,60.276042 v 0.369791 c 0,2.440625 1.996875,4.4375 4.4375,4.4375 h 38.458333 c 2.440625,0 4.4375,-1.996875 4.4375,-4.4375 v -0.369791 c 0,2.440625 -1.996875,4.4375 -4.4375,4.4375 z"
         id="path1111"
         fill-opacity="0.2"
         fill="#bf360c"
         fill-rule="nonzero"
         mask="url(#mask-15-9)"
         style="stroke:none;stroke-width:0.00216114"
         transform="matrix(5.6914213,0,0,5.6914213,136.23641,72.495855)" />
      <path
         d="M 304.60758,72.495826 H 161.49205 c -13.89062,0 -25.25568,11.36505 -25.25568,25.25569 V 417.65685 c 0,13.89062 11.36506,25.25568 25.25568,25.25568 h 218.88258 c 13.89061,0 25.25567,-11.36506 25.25567,-25.25568 V 173.51858 Z"
         id="path1126"
         fill="url(#radialGradient-18)"
         fill-rule="nonzero"
         style="fill:url(#radialGradient-18-1);stroke:none;stroke-width:0.0123" />
    </g>
  </g>
</svg>
