<?xml version="1.0" encoding="UTF-8" standalone="no"?>
<!-- Created with Inkscape (http://www.inkscape.org/) -->

<svg
   width="2048"
   height="2048"
   viewBox="0 0 541.86666 541.86667"
   version="1.1"
   id="svg5"
   inkscape:version="1.1 (c4e8f9ed74, 2021-05-24)"
   sodipodi:docname="org.gnome.Photos.svg"
   xmlns:inkscape="http://www.inkscape.org/namespaces/inkscape"
   xmlns:sodipodi="http://sodipodi.sourceforge.net/DTD/sodipodi-0.dtd"
   xmlns:xlink="http://www.w3.org/1999/xlink"
   xmlns="http://www.w3.org/2000/svg"
   xmlns:svg="http://www.w3.org/2000/svg">
  <sodipodi:namedview
     id="namedview7"
     pagecolor="#ffffff"
     bordercolor="#959191"
     borderopacity="1"
     inkscape:pageshadow="2"
     inkscape:pageopacity="0.0"
     inkscape:pagecheckerboard="true"
     inkscape:document-units="px"
     showgrid="false"
     inkscape:showpageshadow="false"
     inkscape:snap-page="true"
     inkscape:snap-bbox="true"
     inkscape:bbox-nodes="true"
     inkscape:snap-object-midpoints="true"
     inkscape:bbox-paths="true"
     inkscape:snap-midpoints="true"
     inkscape:object-paths="true"
     inkscape:zoom="0.17090256"
     inkscape:cx="514.9133"
     inkscape:cy="1129.2985"
     inkscape:window-width="1366"
     inkscape:window-height="731"
     inkscape:window-x="0"
     inkscape:window-y="0"
     inkscape:window-maximized="1"
     inkscape:current-layer="layer1"
     inkscape:snap-bbox-edge-midpoints="true"
     inkscape:snap-global="true"
     inkscape:snap-bbox-midpoints="true" />
  <defs
     id="defs2">
    <filter
       style="color-interpolation-filters:sRGB;"
       inkscape:label="Drop Shadow"
       id="filter23799"
       x="-0.052701425"
       y="-0.078751954"
       width="1.1054028"
       height="1.2061549">
      <feFlood
         flood-opacity="0.858824"
         flood-color="rgb(2,153,65)"
         result="flood"
         id="feFlood23789" />
      <feComposite
         in="flood"
         in2="SourceGraphic"
         operator="out"
         result="composite1"
         id="feComposite23791" />
      <feGaussianBlur
         in="composite1"
         stdDeviation="8.95341"
         result="blur"
         id="feGaussianBlur23793" />
      <feOffset
         dx="0"
         dy="13.346"
         result="offset"
         id="feOffset23795" />
      <feComposite
         in="offset"
         in2="SourceGraphic"
         operator="atop"
         result="composite2"
         id="feComposite23797" />
    </filter>
    <filter
       style="color-interpolation-filters:sRGB;"
       inkscape:label="Drop Shadow"
       id="filter24873"
       x="-0.025002506"
       y="-0.026286001"
       width="1.050005"
       height="1.052572">
      <feFlood
         flood-opacity="0.858824"
         flood-color="rgb(255,255,255)"
         result="flood"
         id="feFlood24863" />
      <feComposite
         in="flood"
         in2="SourceGraphic"
         operator="out"
         result="composite1"
         id="feComposite24865" />
      <feGaussianBlur
         in="composite1"
         stdDeviation="5.64501"
         result="blur"
         id="feGaussianBlur24867" />
      <feOffset
         dx="0"
         dy="0"
         result="offset"
         id="feOffset24869" />
      <feComposite
         in="offset"
         in2="SourceGraphic"
         operator="atop"
         result="composite2"
         id="feComposite24871" />
    </filter>
    <clipPath
       clipPathUnits="userSpaceOnUse"
       id="clipPath961">
      <rect
         style="fill:#00c853;stroke:none;stroke-width:0.529037"
         id="rect963"
         width="541.86664"
         height="541.86664"
         x="1.4210855e-14"
         y="2.717972e-05"
         rx="79.375"
         ry="79.375" />
    </clipPath>
    <filter
       style="color-interpolation-filters:sRGB"
       inkscape:label="Drop Shadow"
       id="filter24873-3"
       x="-0.025002506"
       y="-0.026286001"
       width="1.050005"
       height="1.052572">
      <feFlood
         flood-opacity="0.858824"
         flood-color="rgb(255,255,255)"
         result="flood"
         id="feFlood24863-6" />
      <feComposite
         in="flood"
         in2="SourceGraphic"
         operator="out"
         result="composite1"
         id="feComposite24865-7" />
      <feGaussianBlur
         in="composite1"
         stdDeviation="5.64501"
         result="blur"
         id="feGaussianBlur24867-5" />
      <feOffset
         dx="0"
         dy="0"
         result="offset"
         id="feOffset24869-3" />
      <feComposite
         in="offset"
         in2="SourceGraphic"
         operator="atop"
         result="composite2"
         id="feComposite24871-5" />
    </filter>
    <filter
       style="color-interpolation-filters:sRGB;"
       inkscape:label="Drop Shadow"
       id="filter2176"
       x="-0.030322663"
       y="-0.047701881"
       width="1.0606453"
       height="1.1219048">
      <feFlood
         flood-opacity="1"
         flood-color="rgb(156,38,38)"
         result="flood"
         id="feFlood2166" />
      <feComposite
         in="flood"
         in2="SourceGraphic"
         operator="in"
         result="composite1"
         id="feComposite2168" />
      <feGaussianBlur
         in="composite1"
         stdDeviation="6"
         result="blur"
         id="feGaussianBlur2170" />
      <feOffset
         dx="0"
         dy="8"
         result="offset"
         id="feOffset2172" />
      <feComposite
         in="SourceGraphic"
         in2="offset"
         operator="over"
         result="composite2"
         id="feComposite2174" />
    </filter>
    <linearGradient
       y2="236"
       x2="96"
       y1="236"
       x1="32"
       gradientTransform="translate(604.81684,170.58641)"
       gradientUnits="userSpaceOnUse"
       id="linearGradient1099"
       xlink:href="#linearGradient1036" />
    <linearGradient
       id="linearGradient1036">
      <stop
         id="stop1032"
         offset="0"
         style="stop-color:#d5d3cf;stop-opacity:1;" />
      <stop
         id="stop1034"
         offset="1"
         style="stop-color:#f6f5f4;stop-opacity:1" />
    </linearGradient>
    <radialGradient
       r="32"
       fy="-76"
       fx="-244"
       cy="-76"
       cx="-244"
       gradientTransform="matrix(0.88333331,0,0,0.88333331,-460.35018,463.11973)"
       gradientUnits="userSpaceOnUse"
       id="radialGradient1103"
       xlink:href="#linearGradient1069" />
    <linearGradient
       id="linearGradient1069">
      <stop
         id="stop1065"
         offset="0"
         style="stop-color:#d5d3cf;stop-opacity:1" />
      <stop
         id="stop1067-1"
         offset="1"
         style="stop-color:#949390;stop-opacity:1" />
    </linearGradient>
    <linearGradient
       gradientUnits="userSpaceOnUse"
       y2="232"
       x2="64"
       y1="262.5"
       x1="64"
       id="linearGradient1027"
       xlink:href="#linearGradient1025"
       gradientTransform="translate(-470.5864,432.81685)" />
    <linearGradient
       id="linearGradient1025">
      <stop
         id="stop1021"
         offset="0"
         style="stop-color:#9a9996;stop-opacity:1" />
      <stop
         id="stop1023"
         offset="1"
         style="stop-color:#77767b;stop-opacity:1" />
    </linearGradient>
    <inkscape:path-effect
       effect="spiro"
       id="path-effect35304-9"
       is_visible="true" />
    <clipPath
       clipPathUnits="userSpaceOnUse"
       id="clipPath1440">
      <circle
         style="display:inline;opacity:1;vector-effect:none;fill:none;fill-opacity:1;stroke:#000000;stroke-width:2;stroke-linecap:butt;stroke-linejoin:miter;stroke-miterlimit:4;stroke-dasharray:none;stroke-dashoffset:0;stroke-opacity:1;marker:none;marker-start:none;marker-mid:none;marker-end:none;paint-order:normal;enable-background:new"
         id="circle1442"
         cx="-134.35028"
         cy="193.74727"
         r="24"
         transform="rotate(-45)" />
    </clipPath>
    <clipPath
       clipPathUnits="userSpaceOnUse"
       id="clipPath1430">
      <circle
         style="display:inline;opacity:1;vector-effect:none;fill:none;fill-opacity:1;stroke:#000000;stroke-width:2;stroke-linecap:butt;stroke-linejoin:miter;stroke-miterlimit:4;stroke-dasharray:none;stroke-dashoffset:0;stroke-opacity:1;marker:none;marker-start:none;marker-mid:none;marker-end:none;paint-order:normal;enable-background:new"
         id="circle1432"
         cx="12"
         cy="232"
         r="24" />
    </clipPath>
    <clipPath
       clipPathUnits="userSpaceOnUse"
       id="clipPath1440-9">
      <circle
         style="display:inline;opacity:1;vector-effect:none;fill:none;fill-opacity:1;stroke:#000000;stroke-width:2;stroke-linecap:butt;stroke-linejoin:miter;stroke-miterlimit:4;stroke-dasharray:none;stroke-dashoffset:0;stroke-opacity:1;marker:none;marker-start:none;marker-mid:none;marker-end:none;paint-order:normal;enable-background:new"
         id="circle1442-5"
         cx="-134.35028"
         cy="193.74727"
         r="24"
         transform="rotate(-45)" />
    </clipPath>
    <clipPath
       clipPathUnits="userSpaceOnUse"
       id="clipPath1430-1">
      <circle
         style="display:inline;opacity:1;vector-effect:none;fill:none;fill-opacity:1;stroke:#000000;stroke-width:2;stroke-linecap:butt;stroke-linejoin:miter;stroke-miterlimit:4;stroke-dasharray:none;stroke-dashoffset:0;stroke-opacity:1;marker:none;marker-start:none;marker-mid:none;marker-end:none;paint-order:normal;enable-background:new"
         id="circle1432-8"
         cx="12"
         cy="232"
         r="24" />
    </clipPath>
    <clipPath
       clipPathUnits="userSpaceOnUse"
       id="clipPath2024">
      <rect
         style="opacity:1;vector-effect:none;fill:#63452c;fill-opacity:1;stroke:none;stroke-width:4;stroke-linecap:round;stroke-linejoin:round;stroke-miterlimit:4;stroke-dasharray:none;stroke-dashoffset:0;stroke-opacity:1"
         id="rect2026"
         width="74"
         height="98"
         x="6"
         y="196" />
    </clipPath>
    <linearGradient
       id="linearGradient914"
       inkscape:collect="always">
      <stop
         id="stop910"
         offset="0"
         style="stop-color:#f6f5f4;stop-opacity:0.43700787" />
      <stop
         id="stop912"
         offset="1"
         style="stop-color:#deddda;stop-opacity:0;" />
    </linearGradient>
    <radialGradient
       gradientTransform="matrix(2.6086955,0,0,1.8410361,-102.95652,-748.94671)"
       gradientUnits="userSpaceOnUse"
       r="46"
       fy="296"
       fx="64.000008"
       cy="296"
       cx="64.000008"
       id="radialGradient916"
       xlink:href="#linearGradient914"
       inkscape:collect="always" />
    <filter
       style="color-interpolation-filters:sRGB;"
       inkscape:label="Drop Shadow"
       id="filter1507"
       x="-0.042822424"
       y="-0.044695823"
       width="1.0856448"
       height="1.1593469">
      <feFlood
         flood-opacity="0.282353"
         flood-color="rgb(0,0,0)"
         result="flood"
         id="feFlood1497" />
      <feComposite
         in="flood"
         in2="SourceGraphic"
         operator="in"
         result="composite1"
         id="feComposite1499" />
      <feGaussianBlur
         in="composite1"
         stdDeviation="1.99838"
         result="blur"
         id="feGaussianBlur1501" />
      <feOffset
         dx="0"
         dy="7.50659"
         result="offset"
         id="feOffset1503" />
      <feComposite
         in="SourceGraphic"
         in2="offset"
         operator="over"
         result="composite2"
         id="feComposite1505" />
    </filter>
    <clipPath
       clipPathUnits="userSpaceOnUse"
       id="clipPath11543">
      <rect
         style="fill:#f0c04e;fill-opacity:1;stroke:none;stroke-width:0.529037"
         id="rect11545"
         width="541.86664"
         height="541.86664"
         x="1.4746095e-06"
         y="6.4330168e-05"
         rx="79.375"
         ry="79.375" />
    </clipPath>
    <filter
       style="color-interpolation-filters:sRGB"
       inkscape:label="Drop Shadow"
       id="filter24873-3-3"
       x="-0.025002506"
       y="-0.026286001"
       width="1.050005"
       height="1.052572">
      <feFlood
         flood-opacity="0.858824"
         flood-color="rgb(222,221,218)"
         result="flood"
         id="feFlood24863-6-6" />
      <feComposite
         in="flood"
         in2="SourceGraphic"
         operator="out"
         result="composite1"
         id="feComposite24865-7-7" />
      <feGaussianBlur
         in="composite1"
         stdDeviation="5.64501"
         result="blur"
         id="feGaussianBlur24867-5-5" />
      <feOffset
         dx="0"
         dy="0"
         result="offset"
         id="feOffset24869-3-3" />
      <feComposite
         in="offset"
         in2="SourceGraphic"
         operator="atop"
         result="composite2"
         id="feComposite24871-5-5" />
    </filter>
    <linearGradient
       id="o">
      <stop
         offset="0"
         stop-color="#f5f4f3"
         id="stop890" />
      <stop
         offset="1"
         stop-color="#ecebea"
         id="stop892" />
    </linearGradient>
    <linearGradient
       id="w">
      <stop
         offset="0"
         stop-color="#1a5fb4"
         id="stop895" />
      <stop
         offset="1"
         stop-color="#3584e4"
         id="stop897" />
    </linearGradient>
    <linearGradient
       id="v">
      <stop
         offset="0"
         stop-color="#613583"
         id="stop900" />
      <stop
         offset="1"
         stop-color="#a347ba"
         id="stop902" />
    </linearGradient>
    <linearGradient
       id="u">
      <stop
         offset="0"
         stop-color="#a51d2d"
         id="stop905" />
      <stop
         offset="1"
         stop-color="#e01b24"
         id="stop907" />
    </linearGradient>
    <linearGradient
       id="t">
      <stop
         offset="0"
         stop-color="#c64600"
         id="stop910-3" />
      <stop
         offset="1"
         stop-color="#ff7800"
         id="stop912-6" />
    </linearGradient>
    <linearGradient
       id="s">
      <stop
         offset="0"
         stop-color="#e5a50a"
         id="stop915" />
      <stop
         offset="1"
         stop-color="#f6d32d"
         id="stop917" />
    </linearGradient>
    <linearGradient
       id="x">
      <stop
         offset="0"
         stop-color="#26a269"
         id="stop920" />
      <stop
         offset="1"
         stop-color="#33d17a"
         id="stop922" />
    </linearGradient>
    <linearGradient
       id="m">
      <stop
         offset="0"
         stop-color="#813d9c"
         id="stop925" />
      <stop
         offset="1"
         stop-color="#c061cb"
         stop-opacity="0"
         id="stop927" />
    </linearGradient>
    <linearGradient
       id="n">
      <stop
         offset="0"
         stop-color="#1a5fb4"
         id="stop930" />
      <stop
         offset="1"
         stop-color="#1a5fb4"
         stop-opacity="0"
         id="stop932" />
    </linearGradient>
    <linearGradient
       id="g">
      <stop
         offset="0"
         stop-color="#4fd2fd"
         id="stop935" />
      <stop
         offset="1"
         stop-color="#1c71d8"
         stop-opacity="0"
         id="stop937" />
    </linearGradient>
    <linearGradient
       id="h">
      <stop
         offset="0"
         stop-color="#ed333b"
         id="stop940" />
      <stop
         offset="1"
         stop-color="#c061cb"
         id="stop942" />
    </linearGradient>
    <linearGradient
       id="l">
      <stop
         offset="0"
         stop-color="#f9f06b"
         id="stop945" />
      <stop
         offset="1"
         stop-color="#f9f06b"
         stop-opacity=".067"
         id="stop947" />
    </linearGradient>
    <linearGradient
       id="a">
      <stop
         offset="0"
         stop-color="#edece9"
         id="stop950" />
      <stop
         offset="1"
         stop-color="#fff"
         id="stop952" />
    </linearGradient>
    <linearGradient
       id="b">
      <stop
         offset="0"
         stop-color="#e0371b"
         id="stop955" />
      <stop
         offset="1"
         stop-color="#f6d32d"
         id="stop957" />
    </linearGradient>
    <linearGradient
       id="c">
      <stop
         offset="0"
         stop-color="#50db81"
         id="stop960" />
      <stop
         offset="1"
         stop-color="#8ff0a4"
         stop-opacity=".004"
         id="stop962" />
    </linearGradient>
    <linearGradient
       id="d">
      <stop
         offset="0"
         stop-color="#4a86cf"
         id="stop965" />
      <stop
         offset="1"
         stop-color="#87bae1"
         stop-opacity="0"
         id="stop967" />
    </linearGradient>
    <linearGradient
       id="e">
      <stop
         offset="0"
         stop-color="#eeeeec"
         id="stop970" />
      <stop
         offset="1"
         stop-color="#f6f5f4"
         id="stop972" />
    </linearGradient>
    <linearGradient
       id="f">
      <stop
         offset="0"
         stop-color="#949390"
         id="stop975" />
      <stop
         offset="1"
         stop-color="#d5d3cf"
         id="stop977" />
    </linearGradient>
    <linearGradient
       id="i">
      <stop
         offset="0"
         stop-color="#4fd2fd"
         id="stop980" />
      <stop
         offset="1"
         stop-color="#1c71d8"
         id="stop982" />
    </linearGradient>
    <linearGradient
       id="j">
      <stop
         offset="0"
         stop-color="#e01b24"
         id="stop985" />
      <stop
         offset="1"
         stop-color="#f66151"
         stop-opacity="0"
         id="stop987" />
    </linearGradient>
    <linearGradient
       id="k">
      <stop
         offset="0"
         stop-color="#c061cb"
         id="stop990" />
      <stop
         offset="1"
         stop-color="#813d9c"
         stop-opacity=".126"
         id="stop992" />
    </linearGradient>
    <linearGradient
       xlink:href="#o"
       id="p"
       gradientUnits="userSpaceOnUse"
       gradientTransform="translate(0 -172)"
       x1="21.006"
       y1="244.701"
       x2="62.049"
       y2="222.341" />
    <linearGradient
       xlink:href="#e"
       id="q"
       gradientUnits="userSpaceOnUse"
       gradientTransform="rotate(-112.5 6.537 150)"
       x1="83.5"
       y1="186.5"
       x2="42.789"
       y2="220.5" />
    <linearGradient
       xlink:href="#e"
       id="r"
       gradientUnits="userSpaceOnUse"
       gradientTransform="rotate(-112.5 92.536 92.537)"
       x1="83.5"
       y1="186.5"
       x2="42.789"
       y2="220.5" />
    <linearGradient
       xlink:href="#s"
       id="z"
       x1="82"
       y1="225.608"
       x2="64"
       y2="196"
       gradientUnits="userSpaceOnUse"
       gradientTransform="matrix(2.7461158,0,0,2.7461158,144.612,-434.22528)" />
    <linearGradient
       xlink:href="#t"
       id="B"
       x1="82.001"
       y1="246.393"
       x2="100"
       y2="216"
       gradientUnits="userSpaceOnUse"
       gradientTransform="matrix(2.7461158,0,0,2.7461158,144.612,-434.22528)" />
    <linearGradient
       xlink:href="#u"
       id="D"
       x1="64.499"
       y1="257.074"
       x2="100"
       y2="258"
       gradientUnits="userSpaceOnUse"
       gradientTransform="matrix(2.7461158,0,0,2.7461158,144.612,-434.22528)" />
    <linearGradient
       xlink:href="#v"
       id="y"
       x1="45.999"
       y1="246.969"
       x2="64"
       y2="276"
       gradientUnits="userSpaceOnUse"
       gradientTransform="matrix(2.7461158,0,0,2.7461158,144.612,-434.22528)" />
    <linearGradient
       xlink:href="#w"
       id="A"
       x1="45.999"
       y1="225.608"
       x2="28"
       y2="256.785"
       gradientUnits="userSpaceOnUse"
       gradientTransform="matrix(2.7461158,0,0,2.7461158,144.612,-434.22528)" />
    <linearGradient
       xlink:href="#x"
       id="C"
       x1="63.999"
       y1="215.215"
       x2="28"
       y2="215.216"
       gradientUnits="userSpaceOnUse"
       gradientTransform="matrix(2.7461158,0,0,2.7461158,144.612,-434.22528)" />
    <clipPath
       clipPathUnits="userSpaceOnUse"
       id="clipPath107221">
      <rect
         style="fill:#cccccc;fill-opacity:1;stroke:none;stroke-width:0.529037"
         id="rect107223"
         width="541.86664"
         height="541.86664"
         x="1.3408203e-05"
         y="-9.2370556e-14"
         rx="79.375"
         ry="79.375" />
    </clipPath>
  </defs>
  <g
     inkscape:label="Layer 1"
     inkscape:groupmode="layer"
     id="layer1">
    <rect
       style="fill:#d8d6d6;fill-opacity:1;stroke:none;stroke-width:0.529037"
       id="rect53"
       width="541.86664"
       height="541.86664"
       x="1.3408203e-05"
       y="-1.1368684e-13"
       rx="79.375"
       ry="79.375" />
    <rect
       style="fill:#f9f9f9;fill-opacity:1;stroke:none;stroke-width:0.515959;filter:url(#filter24873-3-3)"
       id="rect52"
       width="541.86664"
       height="515.40833"
       x="2.3722649e-05"
       y="-1.1368684e-13"
       rx="79.375"
       ry="75.499268" />
    <path
       id="path1012"
       style="color:#000000;fill:#a347ba;stroke-width:3.6717;-inkscape-stroke:none"
       d="m 204.84454,257.70025 v 152.62531 c 0,36.50049 29.5903,66.09083 66.09084,66.09083 v 0.009 c 12.34467,0 23.89649,-3.38842 33.78301,-9.28072 l 131.4444,-75.8988 -66.09084,-114.46862 -99.13727,57.24397 A 1540.0458,1540.0458 0 0 1 239.60105,315.8096 66.090869,66.090869 0 0 1 204.84454,257.70123 Z m 3.96532,130.25464 -0.26118,0.78973 c 0.0859,-0.25834 0.15429,-0.52693 0.24668,-0.78354 z m -3.34831,13.95567 c -0.14686,1.02806 -0.27168,2.05586 -0.37451,3.09129 0.0881,-1.03912 0.23866,-2.06323 0.37451,-3.09129 z" />
    <path
       id="path1014"
       style="color:#000000;fill:#fa659f;stroke-width:3.6717;-inkscape-stroke:none;fill-opacity:1"
       d="m 469.15259,181.38276 c -0.0212,22.8196 -11.81202,45.0112 -32.9974,57.24262 l -18.10133,10.44982 -14.93683,8.62505 -66.08737,38.15597 -0.004,0.002 v 0.006 a 1539.976,1539.976 0 0 1 -1.59468,0.91412 l -31.44692,18.15592 a 66.090869,66.090869 0 0 0 2.84185,-1.75361 1539.976,1539.976 0 0 1 -1.23401,0.70753 66.090869,66.090869 0 0 1 -67.70213,1.05369 l 33.04508,19.07834 66.0943,38.1601 14.93682,8.62436 18.10131,10.44985 c 31.61348,18.24841 72.0356,7.42054 90.28769,-24.18927 l -0.004,-0.004 c 6.12406,-10.60934 8.96802,-22.21034 8.85583,-33.63236 v -152.047 z m -132.12641,38.15806 v 24.4297 c 0.0578,-8.17 0.0773,-16.59715 0.004,-24.42693 v -7e-4 z m 78.59277,26.66766 c -0.27434,0.0584 -0.54355,0.11704 -0.81875,0.16859 l 0.0152,0.006 c 0.26798,-0.0481 0.53556,-0.12118 0.80354,-0.17549 z m -62.94355,130.42184 0.48433,0.54444 c -0.16103,-0.17603 -0.32875,-0.34672 -0.48433,-0.52926 z" />
    <path
       id="path1016"
       style="color:#000000;fill:#ff99c2;stroke-width:1.33706;-inkscape-stroke:none;fill-opacity:1"
       d="m 303.98044,47.830963 -0.0284,0.04907 c 19.75148,11.428313 33.07408,32.733942 33.07408,57.194237 v 114.46656 l 0.004,0.002 v 7e-4 c 0.0738,7.82979 0.0543,16.25694 -0.004,24.42692 v 13.72975 a 66.090869,66.090869 0 0 0 -0.0995,-1.09239 66.090869,66.090869 0 0 1 -32.94214,58.3267 l 33.04508,-19.07834 66.08738,-38.15597 14.93683,-8.62506 18.10133,-10.44982 c 31.61347,-18.25211 42.44479,-58.67375 24.19268,-90.28355 h 0.004 c -6.13061,-10.62058 -14.76625,-18.89146 -24.72751,-24.5057 z m 29.35957,78.770317 -0.27915,0.84365 0.0146,-0.006 c 0.0991,-0.27538 0.16917,-0.56205 0.26461,-0.83743 z m 82.27894,119.6072 c -0.26798,0.0544 -0.53555,0.12743 -0.80353,0.17549 l -0.0152,-0.006 c 0.27519,-0.0516 0.54441,-0.11021 0.81874,-0.16859 z" />
    <path
       id="path1018"
       style="color:#000000;fill:#a387d7;stroke-width:3.6717;-inkscape-stroke:none;fill-opacity:1"
       d="m 270.93538,38.983422 c -12.17047,0 -23.57042,3.29323 -33.36361,9.032014 l -131.86383,76.133004 66.09083,114.47554 99.13938,-57.23915 a 1540.0458,1540.0458 0 0 1 31.33151,18.21051 66.090869,66.090869 0 0 1 34.75652,58.10491 V 105.07426 c 0,-36.500515 -29.5903,-66.090838 -66.0908,-66.090838 z m 65.84484,71.449088 c -0.0885,1.0308 -0.2367,2.04424 -0.37103,3.06089 0.1454,-1.01775 0.26883,-2.03599 0.37103,-3.06089 z m -3.44021,16.16877 c -0.0955,0.27538 -0.16549,0.56205 -0.26462,0.83743 l -0.0146,0.006 z" />
    <path
       id="path1008"
       style="color:#000000;fill:#c3b1e5;stroke-width:3.6717;-inkscape-stroke:none;fill-opacity:1"
       d="m 138.93265,115.2857 c -22.88318,-0.0404 -45.15429,11.8183 -57.417403,33.05613 h 0.0037 c -6.118414,10.59951 -8.962467,22.18828 -8.855829,33.59989 v 152.07532 h 0.05108 c 0.02243,-22.81966 11.81358,-45.01069 32.998082,-57.23915 l 18.10135,-10.44914 14.93681,-8.62505 66.09083,-38.16011 0.004,-0.002 v -0.002 a 1540.0751,1540.0751 0 0 1 0.55965,-0.3206 l 32.48197,-18.75015 a 66.090869,66.090869 0 0 0 -1.18013,0.83259 66.090869,66.090869 0 0 1 67.27511,-0.83604 l -33.04576,-19.08179 -66.0943,-38.15667 -14.93682,-8.62504 -18.10134,-10.44915 c -10.37318,-5.98896 -21.69475,-8.84714 -32.87026,-8.86689 z m 49.66849,22.82257 c 0.19094,0.22032 0.40328,0.42274 0.59421,0.64672 v 0.0144 z m -61.54579,130.90824 c -0.28641,0.0515 -0.57246,0.13562 -0.85885,0.19071 l 0.87404,-0.18447 z m 77.78919,2.41694 c -0.0578,8.16999 -0.0773,16.59712 -0.004,24.42692 l 0.004,0.002 z" />
    <path
       id="path1010"
       style="color:#000000;fill:#ca79dd;fill-opacity:1;stroke-width:3.6717;-inkscape-stroke:none"
       d="m 237.88616,200.4687 -33.04509,19.07489 -66.09081,38.16011 -14.93682,8.62505 -18.10135,10.44914 c -31.613474,18.24842 -42.445485,58.67443 -24.193393,90.28423 6.205096,10.74966 14.976096,19.09257 25.090923,24.70951 l 131.28067,75.79722 0.0283,-0.0491 C 218.1671,456.0914 204.84448,434.78577 204.84448,410.3255 V 295.86238 l -0.004,-0.002 c -0.0738,-7.8298 -0.0542,-16.25694 0.004,-24.42692 v -13.7332 a 66.090869,66.090869 0 0 0 0.13344,1.46687 66.090869,66.090869 0 0 1 32.90825,-58.69843 z m -110.83081,68.54781 0.0152,0.006 -0.87404,0.18447 c 0.28639,-0.0551 0.57244,-0.13929 0.85885,-0.1907 z m 81.75451,118.93838 -0.0145,0.006 c -0.0924,0.25661 -0.16074,0.5252 -0.24667,0.78355 z" />
    <path
       id="path33106"
       style="color:#000000;fill:#ddacea;fill-opacity:1;stroke-width:3.6717;-inkscape-stroke:none"
       d="m 204.84454,257.70025 v 152.62531 c 0,36.50049 29.5903,66.09083 66.09084,66.09083 v 0.009 c 12.34467,0 23.89649,-3.38842 33.78301,-9.28072 l 131.4444,-75.8988 -0.0207,-0.036 c -19.77416,11.39078 -44.88854,12.27544 -66.07426,0.0462 l -18.1013,-10.44984 -14.93684,-8.62436 -66.09428,-38.1601 -7e-4,-7.1e-4 -33.04439,-19.07763 a 66.090869,66.090869 0 0 0 1.32595,0.61217 66.090869,66.090869 0 0 1 -34.3717,-57.8541 z m 165.22741,19.07557 -44.31227,25.58633 9.67183,-5.5835 a 1539.976,1539.976 0 0 0 1.59467,-0.91413 v -0.006 l 0.004,-0.002 33.04367,-19.07833 z m -17.39655,99.8545 v 0.0151 c 0.15558,0.18255 0.3233,0.35323 0.48433,0.52928 z m -143.86554,11.32457 -0.26118,0.78973 c 0.0859,-0.25834 0.15429,-0.52693 0.24668,-0.78354 z" />
  </g>
</svg>
