<?xml version="1.0" encoding="UTF-8" standalone="no"?>
<!-- Created with Inkscape (http://www.inkscape.org/) -->

<svg
   width="2048"
   height="2048"
   viewBox="0 0 541.86666 541.86667"
   version="1.1"
   id="svg5"
   inkscape:version="1.1 (c4e8f9ed74, 2021-05-24)"
   sodipodi:docname="org.gnome.gitlab.somas.Apostrophe.svg"
   xmlns:inkscape="http://www.inkscape.org/namespaces/inkscape"
   xmlns:sodipodi="http://sodipodi.sourceforge.net/DTD/sodipodi-0.dtd"
   xmlns:xlink="http://www.w3.org/1999/xlink"
   xmlns="http://www.w3.org/2000/svg"
   xmlns:svg="http://www.w3.org/2000/svg">
  <sodipodi:namedview
     id="namedview7"
     pagecolor="#ffffff"
     bordercolor="#959191"
     borderopacity="1"
     inkscape:pageshadow="2"
     inkscape:pageopacity="0.0"
     inkscape:pagecheckerboard="true"
     inkscape:document-units="px"
     showgrid="false"
     inkscape:showpageshadow="false"
     inkscape:snap-page="true"
     inkscape:snap-bbox="true"
     inkscape:bbox-nodes="true"
     inkscape:snap-object-midpoints="true"
     inkscape:bbox-paths="true"
     inkscape:snap-midpoints="true"
     inkscape:object-paths="true"
     inkscape:zoom="0.16953985"
     inkscape:cx="530.84865"
     inkscape:cy="1085.2906"
     inkscape:window-width="1366"
     inkscape:window-height="731"
     inkscape:window-x="0"
     inkscape:window-y="0"
     inkscape:window-maximized="1"
     inkscape:current-layer="layer1"
     inkscape:snap-bbox-edge-midpoints="true"
     inkscape:snap-global="true"
     inkscape:snap-bbox-midpoints="true" />
  <defs
     id="defs2">
    <filter
       style="color-interpolation-filters:sRGB;"
       inkscape:label="Drop Shadow"
       id="filter23799"
       x="-0.052701425"
       y="-0.078751954"
       width="1.1054028"
       height="1.2061549">
      <feFlood
         flood-opacity="0.858824"
         flood-color="rgb(2,153,65)"
         result="flood"
         id="feFlood23789" />
      <feComposite
         in="flood"
         in2="SourceGraphic"
         operator="out"
         result="composite1"
         id="feComposite23791" />
      <feGaussianBlur
         in="composite1"
         stdDeviation="8.95341"
         result="blur"
         id="feGaussianBlur23793" />
      <feOffset
         dx="0"
         dy="13.346"
         result="offset"
         id="feOffset23795" />
      <feComposite
         in="offset"
         in2="SourceGraphic"
         operator="atop"
         result="composite2"
         id="feComposite23797" />
    </filter>
    <filter
       style="color-interpolation-filters:sRGB;"
       inkscape:label="Drop Shadow"
       id="filter24873"
       x="-0.025002506"
       y="-0.026286001"
       width="1.050005"
       height="1.052572">
      <feFlood
         flood-opacity="0.858824"
         flood-color="rgb(255,255,255)"
         result="flood"
         id="feFlood24863" />
      <feComposite
         in="flood"
         in2="SourceGraphic"
         operator="out"
         result="composite1"
         id="feComposite24865" />
      <feGaussianBlur
         in="composite1"
         stdDeviation="5.64501"
         result="blur"
         id="feGaussianBlur24867" />
      <feOffset
         dx="0"
         dy="0"
         result="offset"
         id="feOffset24869" />
      <feComposite
         in="offset"
         in2="SourceGraphic"
         operator="atop"
         result="composite2"
         id="feComposite24871" />
    </filter>
    <clipPath
       clipPathUnits="userSpaceOnUse"
       id="clipPath961">
      <rect
         style="fill:#00c853;stroke:none;stroke-width:0.529037"
         id="rect963"
         width="541.86664"
         height="541.86664"
         x="1.4210855e-14"
         y="2.717972e-05"
         rx="79.375"
         ry="79.375" />
    </clipPath>
    <filter
       style="color-interpolation-filters:sRGB"
       inkscape:label="Drop Shadow"
       id="filter24873-3"
       x="-0.025002506"
       y="-0.026286001"
       width="1.050005"
       height="1.052572">
      <feFlood
         flood-opacity="0.858824"
         flood-color="rgb(255,255,255)"
         result="flood"
         id="feFlood24863-6" />
      <feComposite
         in="flood"
         in2="SourceGraphic"
         operator="out"
         result="composite1"
         id="feComposite24865-7" />
      <feGaussianBlur
         in="composite1"
         stdDeviation="5.64501"
         result="blur"
         id="feGaussianBlur24867-5" />
      <feOffset
         dx="0"
         dy="0"
         result="offset"
         id="feOffset24869-3" />
      <feComposite
         in="offset"
         in2="SourceGraphic"
         operator="atop"
         result="composite2"
         id="feComposite24871-5" />
    </filter>
    <filter
       style="color-interpolation-filters:sRGB;"
       inkscape:label="Drop Shadow"
       id="filter2176"
       x="-0.030322663"
       y="-0.047701881"
       width="1.0606453"
       height="1.1219048">
      <feFlood
         flood-opacity="1"
         flood-color="rgb(156,38,38)"
         result="flood"
         id="feFlood2166" />
      <feComposite
         in="flood"
         in2="SourceGraphic"
         operator="in"
         result="composite1"
         id="feComposite2168" />
      <feGaussianBlur
         in="composite1"
         stdDeviation="6"
         result="blur"
         id="feGaussianBlur2170" />
      <feOffset
         dx="0"
         dy="8"
         result="offset"
         id="feOffset2172" />
      <feComposite
         in="SourceGraphic"
         in2="offset"
         operator="over"
         result="composite2"
         id="feComposite2174" />
    </filter>
    <linearGradient
       y2="236"
       x2="96"
       y1="236"
       x1="32"
       gradientTransform="translate(604.81684,170.58641)"
       gradientUnits="userSpaceOnUse"
       id="linearGradient1099"
       xlink:href="#linearGradient1036" />
    <linearGradient
       id="linearGradient1036">
      <stop
         id="stop1032"
         offset="0"
         style="stop-color:#d5d3cf;stop-opacity:1;" />
      <stop
         id="stop1034"
         offset="1"
         style="stop-color:#f6f5f4;stop-opacity:1" />
    </linearGradient>
    <radialGradient
       r="32"
       fy="-76"
       fx="-244"
       cy="-76"
       cx="-244"
       gradientTransform="matrix(0.88333331,0,0,0.88333331,-460.35018,463.11973)"
       gradientUnits="userSpaceOnUse"
       id="radialGradient1103"
       xlink:href="#linearGradient1069" />
    <linearGradient
       id="linearGradient1069">
      <stop
         id="stop1065"
         offset="0"
         style="stop-color:#d5d3cf;stop-opacity:1" />
      <stop
         id="stop1067-1"
         offset="1"
         style="stop-color:#949390;stop-opacity:1" />
    </linearGradient>
    <linearGradient
       gradientUnits="userSpaceOnUse"
       y2="232"
       x2="64"
       y1="262.5"
       x1="64"
       id="linearGradient1027"
       xlink:href="#linearGradient1025"
       gradientTransform="translate(-470.5864,432.81685)" />
    <linearGradient
       id="linearGradient1025">
      <stop
         id="stop1021"
         offset="0"
         style="stop-color:#9a9996;stop-opacity:1" />
      <stop
         id="stop1023"
         offset="1"
         style="stop-color:#77767b;stop-opacity:1" />
    </linearGradient>
    <inkscape:path-effect
       effect="spiro"
       id="path-effect35304-9"
       is_visible="true" />
    <clipPath
       clipPathUnits="userSpaceOnUse"
       id="clipPath1440">
      <circle
         style="display:inline;opacity:1;vector-effect:none;fill:none;fill-opacity:1;stroke:#000000;stroke-width:2;stroke-linecap:butt;stroke-linejoin:miter;stroke-miterlimit:4;stroke-dasharray:none;stroke-dashoffset:0;stroke-opacity:1;marker:none;marker-start:none;marker-mid:none;marker-end:none;paint-order:normal;enable-background:new"
         id="circle1442"
         cx="-134.35028"
         cy="193.74727"
         r="24"
         transform="rotate(-45)" />
    </clipPath>
    <clipPath
       clipPathUnits="userSpaceOnUse"
       id="clipPath1430">
      <circle
         style="display:inline;opacity:1;vector-effect:none;fill:none;fill-opacity:1;stroke:#000000;stroke-width:2;stroke-linecap:butt;stroke-linejoin:miter;stroke-miterlimit:4;stroke-dasharray:none;stroke-dashoffset:0;stroke-opacity:1;marker:none;marker-start:none;marker-mid:none;marker-end:none;paint-order:normal;enable-background:new"
         id="circle1432"
         cx="12"
         cy="232"
         r="24" />
    </clipPath>
    <clipPath
       clipPathUnits="userSpaceOnUse"
       id="clipPath1440-9">
      <circle
         style="display:inline;opacity:1;vector-effect:none;fill:none;fill-opacity:1;stroke:#000000;stroke-width:2;stroke-linecap:butt;stroke-linejoin:miter;stroke-miterlimit:4;stroke-dasharray:none;stroke-dashoffset:0;stroke-opacity:1;marker:none;marker-start:none;marker-mid:none;marker-end:none;paint-order:normal;enable-background:new"
         id="circle1442-5"
         cx="-134.35028"
         cy="193.74727"
         r="24"
         transform="rotate(-45)" />
    </clipPath>
    <clipPath
       clipPathUnits="userSpaceOnUse"
       id="clipPath1430-1">
      <circle
         style="display:inline;opacity:1;vector-effect:none;fill:none;fill-opacity:1;stroke:#000000;stroke-width:2;stroke-linecap:butt;stroke-linejoin:miter;stroke-miterlimit:4;stroke-dasharray:none;stroke-dashoffset:0;stroke-opacity:1;marker:none;marker-start:none;marker-mid:none;marker-end:none;paint-order:normal;enable-background:new"
         id="circle1432-8"
         cx="12"
         cy="232"
         r="24" />
    </clipPath>
    <clipPath
       clipPathUnits="userSpaceOnUse"
       id="clipPath2024">
      <rect
         style="opacity:1;vector-effect:none;fill:#63452c;fill-opacity:1;stroke:none;stroke-width:4;stroke-linecap:round;stroke-linejoin:round;stroke-miterlimit:4;stroke-dasharray:none;stroke-dashoffset:0;stroke-opacity:1"
         id="rect2026"
         width="74"
         height="98"
         x="6"
         y="196" />
    </clipPath>
    <linearGradient
       id="linearGradient914"
       inkscape:collect="always">
      <stop
         id="stop910"
         offset="0"
         style="stop-color:#f6f5f4;stop-opacity:0.43700787" />
      <stop
         id="stop912"
         offset="1"
         style="stop-color:#deddda;stop-opacity:0;" />
    </linearGradient>
    <radialGradient
       gradientTransform="matrix(2.6086955,0,0,1.8410361,-102.95652,-748.94671)"
       gradientUnits="userSpaceOnUse"
       r="46"
       fy="296"
       fx="64.000008"
       cy="296"
       cx="64.000008"
       id="radialGradient916"
       xlink:href="#linearGradient914"
       inkscape:collect="always" />
    <filter
       style="color-interpolation-filters:sRGB;"
       inkscape:label="Drop Shadow"
       id="filter1507"
       x="-0.042822424"
       y="-0.044695823"
       width="1.0856448"
       height="1.1593469">
      <feFlood
         flood-opacity="0.282353"
         flood-color="rgb(0,0,0)"
         result="flood"
         id="feFlood1497" />
      <feComposite
         in="flood"
         in2="SourceGraphic"
         operator="in"
         result="composite1"
         id="feComposite1499" />
      <feGaussianBlur
         in="composite1"
         stdDeviation="1.99838"
         result="blur"
         id="feGaussianBlur1501" />
      <feOffset
         dx="0"
         dy="7.50659"
         result="offset"
         id="feOffset1503" />
      <feComposite
         in="SourceGraphic"
         in2="offset"
         operator="over"
         result="composite2"
         id="feComposite1505" />
    </filter>
    <clipPath
       clipPathUnits="userSpaceOnUse"
       id="clipPath11543">
      <rect
         style="fill:#f0c04e;fill-opacity:1;stroke:none;stroke-width:0.529037"
         id="rect11545"
         width="541.86664"
         height="541.86664"
         x="1.4746095e-06"
         y="6.4330168e-05"
         rx="79.375"
         ry="79.375" />
    </clipPath>
    <filter
       style="color-interpolation-filters:sRGB"
       inkscape:label="Drop Shadow"
       id="filter24873-3-3"
       x="-0.025002506"
       y="-0.026286001"
       width="1.050005"
       height="1.052572">
      <feFlood
         flood-opacity="0.858824"
         flood-color="rgb(192,191,188)"
         result="flood"
         id="feFlood24863-6-6" />
      <feComposite
         in="flood"
         in2="SourceGraphic"
         operator="out"
         result="composite1"
         id="feComposite24865-7-7" />
      <feGaussianBlur
         in="composite1"
         stdDeviation="5.64501"
         result="blur"
         id="feGaussianBlur24867-5-5" />
      <feOffset
         dx="0"
         dy="0"
         result="offset"
         id="feOffset24869-3-3" />
      <feComposite
         in="offset"
         in2="SourceGraphic"
         operator="atop"
         result="composite2"
         id="feComposite24871-5-5" />
    </filter>
    <linearGradient
       id="linearGradient1234">
      <stop
         style="stop-color:#aeadab;stop-opacity:1"
         offset="0"
         id="stop1230" />
      <stop
         style="stop-color:#ceccc8;stop-opacity:1"
         offset="1"
         id="stop1232" />
    </linearGradient>
    <linearGradient
       id="linearGradient1228">
      <stop
         style="stop-color:#e66100;stop-opacity:1"
         offset="0"
         id="stop1224" />
      <stop
         style="stop-color:#ff7800;stop-opacity:1"
         offset="1"
         id="stop1226" />
    </linearGradient>
    <linearGradient
       id="linearGradient1222">
      <stop
         id="stop1210"
         offset="0"
         style="stop-color:#9a9996;stop-opacity:1" />
      <stop
         style="stop-color:#c0bfbc;stop-opacity:1"
         offset="0.03846159"
         id="stop1212" />
      <stop
         id="stop1214"
         offset="0.07692312"
         style="stop-color:#77767b;stop-opacity:1" />
      <stop
         style="stop-color:#77767b;stop-opacity:1"
         offset="0.92307693"
         id="stop1216" />
      <stop
         id="stop1218"
         offset="0.96153843"
         style="stop-color:#c0bfbc;stop-opacity:1" />
      <stop
         id="stop1220"
         offset="1"
         style="stop-color:#9a9996;stop-opacity:1" />
    </linearGradient>
    <linearGradient
       id="linearGradient1339">
      <stop
         id="stop1335"
         offset="0"
         style="stop-color:#5e5c64;stop-opacity:1;" />
      <stop
         id="stop1337"
         offset="1"
         style="stop-color:#77767b;stop-opacity:1" />
    </linearGradient>
    <linearGradient
       y2="254"
       x2="116"
       y1="254"
       x1="11.999994"
       gradientTransform="matrix(3.886858,0,0,3.8498403,13.151346,-660.00614)"
       gradientUnits="userSpaceOnUse"
       id="linearGradient1820"
       xlink:href="#linearGradient1222" />
    <linearGradient
       y2="209"
       x2="31"
       y1="209"
       x1="19"
       gradientTransform="matrix(0,3.6092252,-3.6092252,0,871.86932,90.472064)"
       gradientUnits="userSpaceOnUse"
       id="linearGradient1822"
       xlink:href="#linearGradient1339" />
    <linearGradient
       y2="209"
       x2="31"
       y1="209"
       x1="19"
       gradientTransform="matrix(0,3.6092252,-3.6092252,0,1146.1704,249.27797)"
       gradientUnits="userSpaceOnUse"
       id="linearGradient1824"
       xlink:href="#linearGradient1339" />
    <linearGradient
       y2="209"
       x2="31"
       y1="209"
       x1="17"
       gradientTransform="matrix(0,3.6092252,-3.6092252,0,958.49073,249.27797)"
       gradientUnits="userSpaceOnUse"
       id="linearGradient1826"
       xlink:href="#linearGradient1234" />
    <linearGradient
       y2="209"
       x2="31"
       y1="209"
       x1="19"
       gradientTransform="matrix(0,3.6092252,-3.6092252,0,944.05383,90.472064)"
       gradientUnits="userSpaceOnUse"
       id="linearGradient1828"
       xlink:href="#linearGradient1339" />
    <linearGradient
       y2="209"
       x2="31"
       y1="209"
       x1="19"
       gradientTransform="matrix(0,3.6092252,-3.6092252,0,1016.2383,90.472064)"
       gradientUnits="userSpaceOnUse"
       id="linearGradient1830"
       xlink:href="#linearGradient1339" />
    <linearGradient
       y2="209"
       x2="31"
       y1="209"
       x1="19"
       gradientTransform="matrix(0,3.6092252,-3.6092252,0,1088.4228,90.472064)"
       gradientUnits="userSpaceOnUse"
       id="linearGradient1832"
       xlink:href="#linearGradient1339" />
    <linearGradient
       y2="209"
       x2="31"
       y1="209"
       x1="19"
       gradientTransform="matrix(0,3.6092252,-3.6092252,0,1160.6073,90.472064)"
       gradientUnits="userSpaceOnUse"
       id="linearGradient1834"
       xlink:href="#linearGradient1339" />
    <linearGradient
       y2="209"
       x2="31"
       y1="209"
       x1="19"
       gradientTransform="matrix(0,3.6092252,-3.6092252,0,907.96157,169.87502)"
       gradientUnits="userSpaceOnUse"
       id="linearGradient1836"
       xlink:href="#linearGradient1339" />
    <linearGradient
       y2="209"
       x2="31"
       y1="209"
       x1="19"
       gradientTransform="matrix(0,3.6092252,-3.6092252,0,980.14608,169.87502)"
       gradientUnits="userSpaceOnUse"
       id="linearGradient1838"
       xlink:href="#linearGradient1339" />
    <linearGradient
       y2="209"
       x2="31"
       y1="209"
       x1="19"
       gradientTransform="matrix(0,3.6092252,-3.6092252,0,1052.3306,169.87502)"
       gradientUnits="userSpaceOnUse"
       id="linearGradient1840"
       xlink:href="#linearGradient1339" />
    <linearGradient
       y2="209"
       x2="31"
       y1="209"
       x1="19"
       gradientTransform="matrix(0,3.6092252,-3.6092252,0,1160.6073,169.87502)"
       gradientUnits="userSpaceOnUse"
       id="linearGradient1842"
       xlink:href="#linearGradient1228" />
    <linearGradient
       y2="209"
       x2="31"
       y1="209"
       x1="19"
       gradientTransform="matrix(0,3.6092252,-3.6092252,0,886.30622,249.27797)"
       gradientUnits="userSpaceOnUse"
       id="linearGradient1844"
       xlink:href="#linearGradient1339" />
    <clipPath
       clipPathUnits="userSpaceOnUse"
       id="clipPath1362">
      <rect
         style="fill:#b3b3b3;fill-opacity:1;stroke:none;stroke-width:0.529037"
         id="rect1364"
         width="541.86664"
         height="541.86664"
         x="-7.1241761e-06"
         y="5.5227852e-06"
         rx="79.375"
         ry="79.375" />
    </clipPath>
  </defs>
  <g
     inkscape:label="Layer 1"
     inkscape:groupmode="layer"
     id="layer1">
    <g
       id="g1360"
       clip-path="url(#clipPath1362)">
      <rect
         style="fill:#b3b3b3;fill-opacity:1;stroke:none;stroke-width:0.529037"
         id="rect53"
         width="541.86664"
         height="541.86664"
         x="1.3408203e-05"
         y="-1.1368684e-13"
         rx="79.375"
         ry="79.375" />
      <rect
         style="fill:#e6e6e6;fill-opacity:1;stroke:none;stroke-width:0.515959;filter:url(#filter24873-3-3)"
         id="rect52"
         width="541.86664"
         height="515.40833"
         x="2.3722649e-05"
         y="-1.1368684e-13"
         rx="79.375"
         ry="75.499268" />
      <g
         id="g1275"
         transform="matrix(1.2043159,0,0,1.2043159,-44.489355,-55.355981)">
        <path
           id="path1772"
           d="m 106.71358,159.04734 h 21.65535 c 7.99804,0 13.64107,6.47853 14.4369,14.4369 l 3.60923,36.09226 c 0.79583,7.95837 -6.43886,14.4369 -14.4369,14.4369 h -28.87381 c -7.998039,0 -15.232731,-6.47853 -14.436897,-14.4369 l 3.609225,-36.09226 c 0.795835,-7.95837 6.438858,-14.4369 14.436902,-14.4369 z"
           style="vector-effect:none;fill:#3d3846;fill-opacity:1;stroke:none;stroke-width:14.4369;stroke-linecap:butt;stroke-linejoin:round;stroke-miterlimit:4;stroke-dasharray:none;stroke-dashoffset:0;stroke-opacity:1" />
        <path
           style="vector-effect:none;fill:url(#linearGradient1822);fill-opacity:1;stroke:none;stroke-width:14.4369;stroke-linecap:butt;stroke-linejoin:round;stroke-miterlimit:4;stroke-dasharray:none;stroke-dashoffset:0;stroke-opacity:1"
           d="m 142.80583,173.48424 v 14.4369 c 0,7.99805 -6.43886,14.4369 -14.4369,14.4369 h -21.65535 c -7.998044,0 -14.436902,-6.43885 -14.436902,-14.4369 v -14.4369 c 0,-7.99804 6.438858,-14.4369 14.436902,-14.4369 h 21.65535 c 7.99804,0 14.4369,6.43886 14.4369,14.4369 z"
           id="path1774" />
        <path
           style="vector-effect:none;fill:#3d3846;fill-opacity:1;stroke:none;stroke-width:14.4369;stroke-linecap:butt;stroke-linejoin:round;stroke-miterlimit:4;stroke-dasharray:none;stroke-dashoffset:0;stroke-opacity:1"
           d="m 178.89808,159.04734 h 21.65535 c 7.99805,0 13.64107,6.47853 14.43691,14.4369 l 3.60922,36.09226 c 0.79583,7.95837 -6.43886,14.4369 -14.4369,14.4369 h -28.8738 c -7.99805,0 -15.23274,-6.47853 -14.4369,-14.4369 l 3.60922,-36.09226 c 0.79584,-7.95837 6.43886,-14.4369 14.4369,-14.4369 z"
           id="path1776" />
        <path
           id="path1778"
           d="m 251.08259,159.04734 h 21.65535 c 7.99804,0 13.64107,6.47853 14.4369,14.4369 l 3.60922,36.09226 c 0.79584,7.95837 -6.43885,14.4369 -14.4369,14.4369 h -28.8738 c -7.99804,0 -15.23273,-6.47853 -14.4369,-14.4369 l 3.60923,-36.09226 c 0.79583,-7.95837 6.43885,-14.4369 14.4369,-14.4369 z"
           style="vector-effect:none;fill:#3d3846;fill-opacity:1;stroke:none;stroke-width:14.4369;stroke-linecap:butt;stroke-linejoin:round;stroke-miterlimit:4;stroke-dasharray:none;stroke-dashoffset:0;stroke-opacity:1" />
        <path
           style="vector-effect:none;fill:#3d3846;fill-opacity:1;stroke:none;stroke-width:14.4369;stroke-linecap:butt;stroke-linejoin:round;stroke-miterlimit:4;stroke-dasharray:none;stroke-dashoffset:0;stroke-opacity:1"
           d="m 323.26709,159.04734 h 21.65535 c 7.99805,0 13.64107,6.47853 14.4369,14.4369 l 3.60923,36.09226 c 0.79583,7.95837 -6.43886,14.4369 -14.4369,14.4369 h -28.8738 c -7.99805,0 -15.23274,-6.47853 -14.4369,-14.4369 l 3.60922,-36.09226 c 0.79583,-7.95837 6.43886,-14.4369 14.4369,-14.4369 z"
           id="path1780" />
        <path
           id="path1782"
           d="m 395.4516,159.04734 h 21.65535 c 7.99804,0 13.64106,6.47853 14.4369,14.4369 l 3.60922,36.09226 c 0.79584,7.95837 -6.43886,14.4369 -14.4369,14.4369 h -28.8738 c -7.99804,0 -15.23273,-6.47853 -14.4369,-14.4369 l 3.60922,-36.09226 c 0.79584,-7.95837 6.43886,-14.4369 14.43691,-14.4369 z"
           style="vector-effect:none;fill:#3d3846;fill-opacity:1;stroke:none;stroke-width:14.4369;stroke-linecap:butt;stroke-linejoin:round;stroke-miterlimit:4;stroke-dasharray:none;stroke-dashoffset:0;stroke-opacity:1" />
        <path
           id="path1784"
           d="m 142.80583,238.4503 h 21.65535 c 7.99805,0 13.64107,6.47852 14.4369,14.4369 l 3.60923,36.09225 c 0.79583,7.95838 -6.43886,14.4369 -14.4369,14.4369 h -28.8738 c -7.99805,0 -15.23274,-6.47852 -14.4369,-14.4369 l 3.60922,-36.09225 c 0.79583,-7.95838 6.43886,-14.4369 14.4369,-14.4369 z"
           style="vector-effect:none;fill:#3d3846;fill-opacity:1;stroke:none;stroke-width:14.4369;stroke-linecap:butt;stroke-linejoin:round;stroke-miterlimit:4;stroke-dasharray:none;stroke-dashoffset:0;stroke-opacity:1" />
        <path
           style="vector-effect:none;fill:#3d3846;fill-opacity:1;stroke:none;stroke-width:14.4369;stroke-linecap:butt;stroke-linejoin:round;stroke-miterlimit:4;stroke-dasharray:none;stroke-dashoffset:0;stroke-opacity:1"
           d="m 214.99034,238.4503 h 21.65535 c 7.99804,0 13.64106,6.47852 14.4369,14.4369 l 3.60922,36.09225 c 0.79584,7.95838 -6.43886,14.4369 -14.4369,14.4369 h -28.8738 c -7.99804,0 -15.23273,-6.47852 -14.4369,-14.4369 l 3.60922,-36.09225 c 0.79584,-7.95838 6.43886,-14.4369 14.43691,-14.4369 z"
           id="path1786" />
        <path
           id="path1788"
           d="m 287.17484,238.4503 h 21.65535 c 7.99804,0 13.64107,6.47852 14.4369,14.4369 l 3.60923,36.09225 c 0.79583,7.95838 -6.43886,14.4369 -14.4369,14.4369 h -28.87381 c -7.99804,0 -15.23273,-6.47852 -14.4369,-14.4369 l 3.60923,-36.09225 c 0.79583,-7.95838 6.43886,-14.4369 14.4369,-14.4369 z"
           style="vector-effect:none;fill:#3d3846;fill-opacity:1;stroke:none;stroke-width:14.4369;stroke-linecap:butt;stroke-linejoin:round;stroke-miterlimit:4;stroke-dasharray:none;stroke-dashoffset:0;stroke-opacity:1" />
        <path
           style="vector-effect:none;fill:#c64600;fill-opacity:1;stroke:none;stroke-width:14.4369;stroke-linecap:butt;stroke-linejoin:round;stroke-miterlimit:4;stroke-dasharray:none;stroke-dashoffset:0;stroke-opacity:1"
           d="m 359.35934,238.4503 h 25.26458 c 7.99804,0 13.64107,6.47852 14.4369,14.4369 l 3.60923,36.09225 c 0.79583,7.95838 -6.43886,14.4369 -14.43691,14.4369 h -32.48302 c -7.99805,0 -15.23274,-6.47852 -14.4369,-14.4369 l 3.60922,-36.09225 c 0.79584,-7.95838 6.43886,-14.4369 14.4369,-14.4369 z"
           id="path1790" />
        <path
           style="vector-effect:none;fill:#3d3846;fill-opacity:1;stroke:none;stroke-width:14.4369;stroke-linecap:butt;stroke-linejoin:round;stroke-miterlimit:4;stroke-dasharray:none;stroke-dashoffset:0;stroke-opacity:1"
           d="m 121.15048,317.85325 h 21.65535 c 7.99804,0 13.64107,6.47852 14.4369,14.4369 l 3.60923,36.09225 c 0.79583,7.95838 -6.43886,14.4369 -14.4369,14.4369 h -28.87381 c -7.99804,0 -15.23273,-6.47852 -14.4369,-14.4369 l 3.60923,-36.09225 c 0.79583,-7.95838 6.43886,-14.4369 14.4369,-14.4369 z"
           id="path1792" />
        <path
           id="path1794"
           d="m 381.01469,317.85325 h 21.65536 c 7.99804,0 13.64106,6.47852 14.4369,14.4369 l 3.60922,36.09225 c 0.79584,7.95838 -6.43886,14.4369 -14.4369,14.4369 h -28.8738 c -7.99804,0 -15.23274,-6.47852 -14.4369,-14.4369 l 3.60922,-36.09225 c 0.79584,-7.95838 6.43886,-14.4369 14.4369,-14.4369 z"
           style="vector-effect:none;fill:#3d3846;fill-opacity:1;stroke:none;stroke-width:14.4369;stroke-linecap:butt;stroke-linejoin:round;stroke-miterlimit:4;stroke-dasharray:none;stroke-dashoffset:0;stroke-opacity:1" />
        <path
           style="vector-effect:none;fill:url(#linearGradient1824);fill-opacity:1;stroke:none;stroke-width:14.4369;stroke-linecap:butt;stroke-linejoin:round;stroke-miterlimit:4;stroke-dasharray:none;stroke-dashoffset:0;stroke-opacity:1"
           d="m 417.10695,332.29015 v 14.4369 c 0,7.99805 -6.43886,14.4369 -14.4369,14.4369 h -21.65536 c -7.99804,0 -14.4369,-6.43885 -14.4369,-14.4369 v -14.4369 c 0,-7.99804 6.43886,-14.4369 14.4369,-14.4369 h 21.65536 c 7.99804,0 14.4369,6.43886 14.4369,14.4369 z"
           id="path1796" />
        <path
           style="vector-effect:none;fill:#828186;fill-opacity:1;stroke:none;stroke-width:14.4369;stroke-linecap:butt;stroke-linejoin:round;stroke-miterlimit:4;stroke-dasharray:none;stroke-dashoffset:0;stroke-opacity:1"
           d="m 193.33498,317.85325 h 137.15056 c 7.99804,0 13.64107,6.47852 14.4369,14.4369 l 3.60923,36.09225 c 0.79583,7.95838 -6.43886,14.4369 -14.4369,14.4369 H 189.72576 c -7.99804,0 -15.23274,-6.47852 -14.4369,-14.4369 l 3.60922,-36.09225 c 0.79584,-7.95838 6.43886,-14.4369 14.4369,-14.4369 z"
           id="path1798" />
        <path
           id="path1800"
           d="m 344.92244,332.29015 v 14.4369 c 0,7.99805 -6.43886,14.4369 -14.4369,14.4369 H 193.33498 c -7.99804,0 -14.4369,-6.43885 -14.4369,-14.4369 v -14.4369 c 0,-7.99804 6.43886,-14.4369 14.4369,-14.4369 h 137.15056 c 7.99804,0 14.4369,6.43886 14.4369,14.4369 z"
           style="vector-effect:none;fill:url(#linearGradient1826);fill-opacity:1;stroke:none;stroke-width:14.4369;stroke-linecap:butt;stroke-linejoin:round;stroke-miterlimit:4;stroke-dasharray:none;stroke-dashoffset:0;stroke-opacity:1" />
        <path
           id="path1802"
           d="m 214.99034,173.48424 v 14.4369 c 0,7.99805 -6.43886,14.4369 -14.43691,14.4369 h -21.65535 c -7.99804,0 -14.4369,-6.43885 -14.4369,-14.4369 v -14.4369 c 0,-7.99804 6.43886,-14.4369 14.4369,-14.4369 h 21.65535 c 7.99805,0 14.43691,6.43886 14.43691,14.4369 z"
           style="vector-effect:none;fill:url(#linearGradient1828);fill-opacity:1;stroke:none;stroke-width:14.4369;stroke-linecap:butt;stroke-linejoin:round;stroke-miterlimit:4;stroke-dasharray:none;stroke-dashoffset:0;stroke-opacity:1" />
        <path
           id="path1804"
           d="m 287.17484,173.48424 v 14.4369 c 0,7.99805 -6.43886,14.4369 -14.4369,14.4369 h -21.65535 c -7.99805,0 -14.4369,-6.43885 -14.4369,-14.4369 v -14.4369 c 0,-7.99804 6.43885,-14.4369 14.4369,-14.4369 h 21.65535 c 7.99804,0 14.4369,6.43886 14.4369,14.4369 z"
           style="vector-effect:none;fill:url(#linearGradient1830);fill-opacity:1;stroke:none;stroke-width:14.4369;stroke-linecap:butt;stroke-linejoin:round;stroke-miterlimit:4;stroke-dasharray:none;stroke-dashoffset:0;stroke-opacity:1" />
        <path
           style="vector-effect:none;fill:url(#linearGradient1832);fill-opacity:1;stroke:none;stroke-width:14.4369;stroke-linecap:butt;stroke-linejoin:round;stroke-miterlimit:4;stroke-dasharray:none;stroke-dashoffset:0;stroke-opacity:1"
           d="m 359.35934,173.48424 v 14.4369 c 0,7.99805 -6.43885,14.4369 -14.4369,14.4369 h -21.65535 c -7.99804,0 -14.4369,-6.43885 -14.4369,-14.4369 v -14.4369 c 0,-7.99804 6.43886,-14.4369 14.4369,-14.4369 h 21.65535 c 7.99805,0 14.4369,6.43886 14.4369,14.4369 z"
           id="path1806" />
        <path
           id="path1808"
           d="m 431.54385,173.48424 v 14.4369 c 0,7.99805 -6.43886,14.4369 -14.4369,14.4369 H 395.4516 c -7.99805,0 -14.43691,-6.43885 -14.43691,-14.4369 v -14.4369 c 0,-7.99804 6.43886,-14.4369 14.43691,-14.4369 h 21.65535 c 7.99804,0 14.4369,6.43886 14.4369,14.4369 z"
           style="vector-effect:none;fill:url(#linearGradient1834);fill-opacity:1;stroke:none;stroke-width:14.4369;stroke-linecap:butt;stroke-linejoin:round;stroke-miterlimit:4;stroke-dasharray:none;stroke-dashoffset:0;stroke-opacity:1" />
        <path
           style="vector-effect:none;fill:url(#linearGradient1836);fill-opacity:1;stroke:none;stroke-width:14.4369;stroke-linecap:butt;stroke-linejoin:round;stroke-miterlimit:4;stroke-dasharray:none;stroke-dashoffset:0;stroke-opacity:1"
           d="m 178.89808,252.8872 v 14.4369 c 0,7.99804 -6.43885,14.4369 -14.4369,14.4369 h -21.65535 c -7.99804,0 -14.4369,-6.43886 -14.4369,-14.4369 v -14.4369 c 0,-7.99805 6.43886,-14.4369 14.4369,-14.4369 h 21.65535 c 7.99805,0 14.4369,6.43885 14.4369,14.4369 z"
           id="path1810" />
        <path
           style="vector-effect:none;fill:url(#linearGradient1838);fill-opacity:1;stroke:none;stroke-width:14.4369;stroke-linecap:butt;stroke-linejoin:round;stroke-miterlimit:4;stroke-dasharray:none;stroke-dashoffset:0;stroke-opacity:1"
           d="m 251.08259,252.8872 v 14.4369 c 0,7.99804 -6.43886,14.4369 -14.4369,14.4369 h -21.65535 c -7.99805,0 -14.43691,-6.43886 -14.43691,-14.4369 v -14.4369 c 0,-7.99805 6.43886,-14.4369 14.43691,-14.4369 h 21.65535 c 7.99804,0 14.4369,6.43885 14.4369,14.4369 z"
           id="path1812" />
        <path
           id="path1814"
           d="m 323.26709,252.8872 v 14.4369 c 0,7.99804 -6.43886,14.4369 -14.4369,14.4369 h -21.65535 c -7.99804,0 -14.4369,-6.43886 -14.4369,-14.4369 v -14.4369 c 0,-7.99805 6.43886,-14.4369 14.4369,-14.4369 h 21.65535 c 7.99804,0 14.4369,6.43885 14.4369,14.4369 z"
           style="vector-effect:none;fill:url(#linearGradient1840);fill-opacity:1;stroke:none;stroke-width:14.4369;stroke-linecap:butt;stroke-linejoin:round;stroke-miterlimit:4;stroke-dasharray:none;stroke-dashoffset:0;stroke-opacity:1" />
        <path
           style="vector-effect:none;fill:url(#linearGradient1842);fill-opacity:1;stroke:none;stroke-width:14.4369;stroke-linecap:butt;stroke-linejoin:round;stroke-miterlimit:4;stroke-dasharray:none;stroke-dashoffset:0;stroke-opacity:1"
           d="m 399.06082,252.8872 v 14.4369 c 0,7.99804 -6.43886,14.4369 -14.4369,14.4369 h -25.26458 c -7.99804,0 -14.4369,-6.43886 -14.4369,-14.4369 v -14.4369 c 0,-7.99805 6.43886,-14.4369 14.4369,-14.4369 h 25.26458 c 7.99804,0 14.4369,6.43885 14.4369,14.4369 z"
           id="path1816" />
        <path
           id="path1818"
           d="m 157.24273,332.29015 v 14.4369 c 0,7.99805 -6.43886,14.4369 -14.4369,14.4369 h -21.65535 c -7.99804,0 -14.4369,-6.43885 -14.4369,-14.4369 v -14.4369 c 0,-7.99804 6.43886,-14.4369 14.4369,-14.4369 h 21.65535 c 7.99804,0 14.4369,6.43886 14.4369,14.4369 z"
           style="vector-effect:none;fill:url(#linearGradient1844);fill-opacity:1;stroke:none;stroke-width:14.4369;stroke-linecap:butt;stroke-linejoin:round;stroke-miterlimit:4;stroke-dasharray:none;stroke-dashoffset:0;stroke-opacity:1" />
      </g>
    </g>
  </g>
</svg>
