<?xml version="1.0" encoding="UTF-8" standalone="no"?>
<!-- Created with Inkscape (http://www.inkscape.org/) -->

<svg
   width="2048"
   height="2048"
   viewBox="0 0 541.86666 541.86667"
   version="1.1"
   id="svg5"
   inkscape:version="1.1 (c4e8f9ed74, 2021-05-24)"
   sodipodi:docname="Settings.svg"
   inkscape:export-filename="/home/retro/Workspace/Icon-pack/Settings.png"
   inkscape:export-xdpi="6"
   inkscape:export-ydpi="6"
   xmlns:inkscape="http://www.inkscape.org/namespaces/inkscape"
   xmlns:sodipodi="http://sodipodi.sourceforge.net/DTD/sodipodi-0.dtd"
   xmlns="http://www.w3.org/2000/svg"
   xmlns:svg="http://www.w3.org/2000/svg">
  <sodipodi:namedview
     id="namedview7"
     pagecolor="#ffffff"
     bordercolor="#959191"
     borderopacity="1"
     inkscape:pageshadow="2"
     inkscape:pageopacity="0.0"
     inkscape:pagecheckerboard="true"
     inkscape:document-units="px"
     showgrid="false"
     inkscape:showpageshadow="false"
     inkscape:snap-page="true"
     inkscape:snap-bbox="true"
     inkscape:snap-object-midpoints="true"
     inkscape:object-paths="true"
     inkscape:snap-intersection-paths="true"
     inkscape:snap-center="true"
     inkscape:zoom="0.15387212"
     inkscape:cx="584.90128"
     inkscape:cy="1527.2422"
     inkscape:window-width="1366"
     inkscape:window-height="731"
     inkscape:window-x="0"
     inkscape:window-y="0"
     inkscape:window-maximized="1"
     inkscape:current-layer="layer2" />
  <defs
     id="defs2">
    <filter
       style="color-interpolation-filters:sRGB;"
       inkscape:label="Drop Shadow"
       id="filter5070"
       x="-0.054515085"
       y="-0.050772127"
       width="1.1090302"
       height="1.133584">
      <feFlood
         flood-opacity="0.10000000000000001"
         flood-color="rgb(0,0,0)"
         result="flood"
         id="feFlood5060" />
      <feComposite
         in="flood"
         in2="SourceGraphic"
         operator="in"
         result="composite1"
         id="feComposite5062" />
      <feGaussianBlur
         in="composite1"
         stdDeviation="22.170000000000002"
         result="blur"
         id="feGaussianBlur5064" />
      <feOffset
         dx="0"
         dy="33.576888489208642"
         result="offset"
         id="feOffset5066" />
      <feComposite
         in="SourceGraphic"
         in2="offset"
         operator="over"
         result="composite2"
         id="feComposite5068" />
    </filter>
    <filter
       style="color-interpolation-filters:sRGB;"
       inkscape:label="Drop Shadow"
       id="filter5730"
       x="-0.11137006"
       y="-0.11137006"
       width="1.2227401"
       height="1.2545238">
      <feFlood
         flood-opacity="0.35383300781249999"
         flood-color="rgb(128,112,112)"
         result="flood"
         id="feFlood5720" />
      <feComposite
         in="flood"
         in2="SourceGraphic"
         operator="in"
         result="composite1"
         id="feComposite5722" />
      <feGaussianBlur
         in="composite1"
         stdDeviation="8.2200000000000006"
         result="blur"
         id="feGaussianBlur5724" />
      <feOffset
         dx="0"
         dy="6"
         result="offset"
         id="feOffset5726" />
      <feComposite
         in="SourceGraphic"
         in2="offset"
         operator="over"
         result="fbSourceGraphic"
         id="feComposite5728" />
      <feColorMatrix
         result="fbSourceGraphicAlpha"
         in="fbSourceGraphic"
         values="0 0 0 -1 0 0 0 0 -1 0 0 0 0 -1 0 0 0 0 1 0"
         id="feColorMatrix6994" />
      <feFlood
         id="feFlood6996"
         flood-opacity="0.30000000000000004"
         flood-color="rgb(255,255,255)"
         result="flood"
         in="fbSourceGraphic" />
      <feComposite
         in2="fbSourceGraphic"
         id="feComposite6998"
         in="flood"
         operator="out"
         result="composite1" />
      <feGaussianBlur
         id="feGaussianBlur7000"
         in="composite1"
         stdDeviation="2"
         result="blur" />
      <feOffset
         id="feOffset7002"
         dx="0"
         dy="1"
         result="offset" />
      <feComposite
         in2="fbSourceGraphic"
         id="feComposite7004"
         in="offset"
         operator="atop"
         result="composite2" />
    </filter>
    <filter
       style="color-interpolation-filters:sRGB;"
       inkscape:label="Drop Shadow"
       id="filter599"
       x="-0.0088582682"
       y="-0.0093130044"
       width="1.0179011"
       height="1.0201782">
      <feFlood
         flood-opacity="0.145098"
         flood-color="rgb(99,99,99)"
         result="flood"
         id="feFlood589" />
      <feComposite
         in="flood"
         in2="SourceGraphic"
         operator="out"
         result="composite1"
         id="feComposite591" />
      <feGaussianBlur
         in="composite1"
         stdDeviation="2"
         result="blur"
         id="feGaussianBlur593" />
      <feOffset
         dx="0.1"
         dy="0.8"
         result="offset"
         id="feOffset595" />
      <feComposite
         in="offset"
         in2="SourceGraphic"
         operator="atop"
         result="composite2"
         id="feComposite597" />
    </filter>
    <clipPath
       clipPathUnits="userSpaceOnUse"
       id="clipPath152">
      <rect
         style="fill:#cccccc;stroke:none;stroke-width:0.529037"
         id="rect154"
         width="541.86664"
         height="541.86664"
         x="0"
         y="-9.5367432e-06"
         rx="79.375"
         ry="79.375" />
    </clipPath>
    <clipPath
       clipPathUnits="userSpaceOnUse"
       id="clipPath879">
      <rect
         style="fill:#cccccc;stroke:none;stroke-width:0.529037"
         id="rect881"
         width="541.86664"
         height="541.86664"
         x="2.6816406e-05"
         y="-3.7011723e-06"
         rx="79.375"
         ry="79.375" />
    </clipPath>
    <clipPath
       clipPathUnits="userSpaceOnUse"
       id="clipPath5144">
      <rect
         style="fill:#cccccc;stroke:none;stroke-width:0.529037"
         id="rect5146"
         width="541.86664"
         height="541.86664"
         x="1.1368684e-13"
         y="1.4210855e-14"
         rx="79.375"
         ry="79.375" />
    </clipPath>
    <clipPath
       clipPathUnits="userSpaceOnUse"
       id="clipPath13391">
      <rect
         style="fill:#cccccc;fill-opacity:1;stroke:none;stroke-width:0.529037"
         id="rect13393"
         width="541.86664"
         height="541.86664"
         x="0"
         y="1.7763568e-14"
         rx="79.375"
         ry="79.375" />
    </clipPath>
  </defs>
  <g
     inkscape:label="Layer 1"
     inkscape:groupmode="layer"
     id="layer1" />
  <g
     inkscape:groupmode="layer"
     id="layer2"
     inkscape:label="Layer 2">
    <g
       id="g13389"
       clip-path="url(#clipPath13391)">
      <rect
         style="fill:#cccccc;stroke:none;stroke-width:0.529037;fill-opacity:1"
         id="rect53"
         width="541.86664"
         height="541.86664"
         x="0"
         y="0"
         rx="79.375"
         ry="79.375" />
      <rect
         style="fill:#f9f9f9;stroke:none;stroke-width:0.51596;filter:url(#filter599)"
         id="rect4350"
         width="541.86664"
         height="515.40833"
         x="0"
         y="0"
         rx="79.375"
         ry="75.499275" />
      <path
         id="path1456"
         style="fill:#afafaf;fill-opacity:1;stroke-width:0.999999;filter:url(#filter5070);opacity:1"
         d="M 1024,500.01172 A 523.98891,523.98891 0 0 0 945.17969,506 l -38.29492,118.61914 h 0.68554 A 416.19841,416.19841 0 0 0 736.3418,723.47656 l 0.34179,-0.59179 -121.875,-26.14454 a 523.98891,523.98891 0 0 0 -78.82031,136.51954 l 83.58008,92.47265 0.3418,-0.5918 A 416.19841,416.19841 0 0 0 607.80078,1024 a 416.19841,416.19841 0 0 0 12.10938,98.8594 l -0.3418,-0.5918 -83.58008,92.4726 a 523.98891,523.98891 0 0 0 78.82031,136.5196 l 121.875,-26.1446 -0.34179,-0.5918 a 416.19841,416.19841 0 0 0 171.22851,98.8575 h -0.68554 L 945.17969,1542 A 523.98891,523.98891 0 0 0 1024,1547.9883 523.98891,523.98891 0 0 0 1102.8184,1542 l 38.2968,-118.6191 h -0.6855 a 416.19841,416.19841 0 0 0 171.2285,-98.8575 l -0.3418,0.5918 121.875,26.1446 a 523.98891,523.98891 0 0 0 78.8203,-136.5196 l -83.5801,-92.4726 -0.3418,0.5918 A 416.19841,416.19841 0 0 0 1440.1992,1024 416.19841,416.19841 0 0 0 1428.3809,925.64648 l 0.051,0.0859 83.5664,-92.45703 a 523.98891,523.98891 0 0 0 -78.8066,-136.53516 l -121.875,26.14454 0.061,0.10351 a 416.19841,416.19841 0 0 0 -170.293,-98.36914 h 0.029 L 1102.8164,505.99219 A 523.98891,523.98891 0 0 0 1024,500.01172 Z m 0,293.86523 A 230.12211,230.12211 0 0 1 1254.123,1024 230.12211,230.12211 0 0 1 1024,1254.1211 230.12211,230.12211 0 0 1 793.87891,1024 230.12211,230.12211 0 0 1 1024,793.87695 Z"
         transform="matrix(0.38105838,0,0,0.38105838,-119.27044,-136.8977)" />
      <path
         id="circle3202"
         style="color:#000000;fill:#afafaf;fill-opacity:1;stroke-width:0.264583;-inkscape-stroke:none;filter:url(#filter5730);opacity:1"
         d="M 270.93332,160.81395 A 110.11916,110.11916 0 0 0 160.81395,270.93332 110.11916,110.11916 0 0 0 270.93332,381.05269 110.11916,110.11916 0 0 0 381.05269,270.93332 110.11916,110.11916 0 0 0 270.93332,160.81395 Z m 0,49.23266 a 60.886474,60.886474 0 0 1 60.88621,60.88671 60.886474,60.886474 0 0 1 -60.88621,60.88621 60.886474,60.886474 0 0 1 -60.88671,-60.88621 60.886474,60.886474 0 0 1 60.88671,-60.88671 z"
         transform="matrix(1.4402206,0,0,1.4402206,-119.27044,-136.8977)" />
    </g>
  </g>
</svg>
