<?xml version="1.0" encoding="UTF-8" standalone="no"?>
<!-- Created with Inkscape (http://www.inkscape.org/) -->

<svg
   width="2048"
   height="2048"
   viewBox="0 0 541.86666 541.86667"
   version="1.1"
   id="svg5"
   inkscape:version="1.1 (c4e8f9ed74, 2021-05-24)"
   sodipodi:docname="Lollypop.svg"
   xmlns:inkscape="http://www.inkscape.org/namespaces/inkscape"
   xmlns:sodipodi="http://sodipodi.sourceforge.net/DTD/sodipodi-0.dtd"
   xmlns:xlink="http://www.w3.org/1999/xlink"
   xmlns="http://www.w3.org/2000/svg"
   xmlns:svg="http://www.w3.org/2000/svg">
  <sodipodi:namedview
     id="namedview7"
     pagecolor="#ffffff"
     bordercolor="#959191"
     borderopacity="1"
     inkscape:pageshadow="2"
     inkscape:pageopacity="0.0"
     inkscape:pagecheckerboard="true"
     inkscape:document-units="px"
     showgrid="false"
     inkscape:showpageshadow="false"
     inkscape:snap-page="true"
     inkscape:snap-bbox="true"
     inkscape:bbox-nodes="true"
     inkscape:snap-object-midpoints="true"
     inkscape:bbox-paths="true"
     inkscape:snap-midpoints="true"
     inkscape:object-paths="true"
     inkscape:zoom="0.17977501"
     inkscape:cx="1410.0959"
     inkscape:cy="1068.0016"
     inkscape:window-width="1366"
     inkscape:window-height="731"
     inkscape:window-x="0"
     inkscape:window-y="0"
     inkscape:window-maximized="1"
     inkscape:current-layer="layer9"
     inkscape:snap-bbox-edge-midpoints="true"
     inkscape:snap-global="true" />
  <defs
     id="defs2">
    <filter
       style="color-interpolation-filters:sRGB;"
       inkscape:label="Drop Shadow"
       id="filter23799"
       x="-0.052701425"
       y="-0.078751954"
       width="1.1054028"
       height="1.2061549">
      <feFlood
         flood-opacity="0.858824"
         flood-color="rgb(2,153,65)"
         result="flood"
         id="feFlood23789" />
      <feComposite
         in="flood"
         in2="SourceGraphic"
         operator="out"
         result="composite1"
         id="feComposite23791" />
      <feGaussianBlur
         in="composite1"
         stdDeviation="8.95341"
         result="blur"
         id="feGaussianBlur23793" />
      <feOffset
         dx="0"
         dy="13.346"
         result="offset"
         id="feOffset23795" />
      <feComposite
         in="offset"
         in2="SourceGraphic"
         operator="atop"
         result="composite2"
         id="feComposite23797" />
    </filter>
    <filter
       style="color-interpolation-filters:sRGB;"
       inkscape:label="Drop Shadow"
       id="filter24873"
       x="-0.025002506"
       y="-0.026286001"
       width="1.050005"
       height="1.052572">
      <feFlood
         flood-opacity="0.858824"
         flood-color="rgb(255,255,255)"
         result="flood"
         id="feFlood24863" />
      <feComposite
         in="flood"
         in2="SourceGraphic"
         operator="out"
         result="composite1"
         id="feComposite24865" />
      <feGaussianBlur
         in="composite1"
         stdDeviation="5.64501"
         result="blur"
         id="feGaussianBlur24867" />
      <feOffset
         dx="0"
         dy="0"
         result="offset"
         id="feOffset24869" />
      <feComposite
         in="offset"
         in2="SourceGraphic"
         operator="atop"
         result="composite2"
         id="feComposite24871" />
    </filter>
    <clipPath
       clipPathUnits="userSpaceOnUse"
       id="clipPath961">
      <rect
         style="fill:#00c853;stroke:none;stroke-width:0.529037"
         id="rect963"
         width="541.86664"
         height="541.86664"
         x="1.4210855e-14"
         y="2.717972e-05"
         rx="79.375"
         ry="79.375" />
    </clipPath>
    <filter
       style="color-interpolation-filters:sRGB"
       inkscape:label="Drop Shadow"
       id="filter24873-3"
       x="-0.025002506"
       y="-0.026286001"
       width="1.050005"
       height="1.052572">
      <feFlood
         flood-opacity="0.858824"
         flood-color="rgb(255,255,255)"
         result="flood"
         id="feFlood24863-6" />
      <feComposite
         in="flood"
         in2="SourceGraphic"
         operator="out"
         result="composite1"
         id="feComposite24865-7" />
      <feGaussianBlur
         in="composite1"
         stdDeviation="5.64501"
         result="blur"
         id="feGaussianBlur24867-5" />
      <feOffset
         dx="0"
         dy="0"
         result="offset"
         id="feOffset24869-3" />
      <feComposite
         in="offset"
         in2="SourceGraphic"
         operator="atop"
         result="composite2"
         id="feComposite24871-5" />
    </filter>
    <filter
       style="color-interpolation-filters:sRGB;"
       inkscape:label="Drop Shadow"
       id="filter2176"
       x="-0.030322663"
       y="-0.047701881"
       width="1.0606453"
       height="1.1219048">
      <feFlood
         flood-opacity="1"
         flood-color="rgb(156,38,38)"
         result="flood"
         id="feFlood2166" />
      <feComposite
         in="flood"
         in2="SourceGraphic"
         operator="in"
         result="composite1"
         id="feComposite2168" />
      <feGaussianBlur
         in="composite1"
         stdDeviation="6"
         result="blur"
         id="feGaussianBlur2170" />
      <feOffset
         dx="0"
         dy="8"
         result="offset"
         id="feOffset2172" />
      <feComposite
         in="SourceGraphic"
         in2="offset"
         operator="over"
         result="composite2"
         id="feComposite2174" />
    </filter>
    <linearGradient
       y2="236"
       x2="96"
       y1="236"
       x1="32"
       gradientTransform="translate(604.81684,170.58641)"
       gradientUnits="userSpaceOnUse"
       id="linearGradient1099"
       xlink:href="#linearGradient1036" />
    <linearGradient
       id="linearGradient1036">
      <stop
         id="stop1032"
         offset="0"
         style="stop-color:#d5d3cf;stop-opacity:1;" />
      <stop
         id="stop1034"
         offset="1"
         style="stop-color:#f6f5f4;stop-opacity:1" />
    </linearGradient>
    <radialGradient
       r="32"
       fy="-76"
       fx="-244"
       cy="-76"
       cx="-244"
       gradientTransform="matrix(0.88333331,0,0,0.88333331,-460.35018,463.11973)"
       gradientUnits="userSpaceOnUse"
       id="radialGradient1103"
       xlink:href="#linearGradient1069" />
    <linearGradient
       id="linearGradient1069">
      <stop
         id="stop1065"
         offset="0"
         style="stop-color:#d5d3cf;stop-opacity:1" />
      <stop
         id="stop1067-1"
         offset="1"
         style="stop-color:#949390;stop-opacity:1" />
    </linearGradient>
    <linearGradient
       gradientUnits="userSpaceOnUse"
       y2="232"
       x2="64"
       y1="262.5"
       x1="64"
       id="linearGradient1027"
       xlink:href="#linearGradient1025"
       gradientTransform="translate(-470.5864,432.81685)" />
    <linearGradient
       id="linearGradient1025">
      <stop
         id="stop1021"
         offset="0"
         style="stop-color:#9a9996;stop-opacity:1" />
      <stop
         id="stop1023"
         offset="1"
         style="stop-color:#77767b;stop-opacity:1" />
    </linearGradient>
    <inkscape:path-effect
       effect="spiro"
       id="path-effect35304-9"
       is_visible="true" />
    <clipPath
       clipPathUnits="userSpaceOnUse"
       id="clipPath1440">
      <circle
         style="display:inline;opacity:1;vector-effect:none;fill:none;fill-opacity:1;stroke:#000000;stroke-width:2;stroke-linecap:butt;stroke-linejoin:miter;stroke-miterlimit:4;stroke-dasharray:none;stroke-dashoffset:0;stroke-opacity:1;marker:none;marker-start:none;marker-mid:none;marker-end:none;paint-order:normal;enable-background:new"
         id="circle1442"
         cx="-134.35028"
         cy="193.74727"
         r="24"
         transform="rotate(-45)" />
    </clipPath>
    <clipPath
       clipPathUnits="userSpaceOnUse"
       id="clipPath1430">
      <circle
         style="display:inline;opacity:1;vector-effect:none;fill:none;fill-opacity:1;stroke:#000000;stroke-width:2;stroke-linecap:butt;stroke-linejoin:miter;stroke-miterlimit:4;stroke-dasharray:none;stroke-dashoffset:0;stroke-opacity:1;marker:none;marker-start:none;marker-mid:none;marker-end:none;paint-order:normal;enable-background:new"
         id="circle1432"
         cx="12"
         cy="232"
         r="24" />
    </clipPath>
    <clipPath
       clipPathUnits="userSpaceOnUse"
       id="clipPath1440-9">
      <circle
         style="display:inline;opacity:1;vector-effect:none;fill:none;fill-opacity:1;stroke:#000000;stroke-width:2;stroke-linecap:butt;stroke-linejoin:miter;stroke-miterlimit:4;stroke-dasharray:none;stroke-dashoffset:0;stroke-opacity:1;marker:none;marker-start:none;marker-mid:none;marker-end:none;paint-order:normal;enable-background:new"
         id="circle1442-5"
         cx="-134.35028"
         cy="193.74727"
         r="24"
         transform="rotate(-45)" />
    </clipPath>
    <clipPath
       clipPathUnits="userSpaceOnUse"
       id="clipPath1430-1">
      <circle
         style="display:inline;opacity:1;vector-effect:none;fill:none;fill-opacity:1;stroke:#000000;stroke-width:2;stroke-linecap:butt;stroke-linejoin:miter;stroke-miterlimit:4;stroke-dasharray:none;stroke-dashoffset:0;stroke-opacity:1;marker:none;marker-start:none;marker-mid:none;marker-end:none;paint-order:normal;enable-background:new"
         id="circle1432-8"
         cx="12"
         cy="232"
         r="24" />
    </clipPath>
    <clipPath
       clipPathUnits="userSpaceOnUse"
       id="clipPath2024">
      <rect
         style="opacity:1;vector-effect:none;fill:#63452c;fill-opacity:1;stroke:none;stroke-width:4;stroke-linecap:round;stroke-linejoin:round;stroke-miterlimit:4;stroke-dasharray:none;stroke-dashoffset:0;stroke-opacity:1"
         id="rect2026"
         width="74"
         height="98"
         x="6"
         y="196" />
    </clipPath>
    <linearGradient
       id="linearGradient914"
       inkscape:collect="always">
      <stop
         id="stop910"
         offset="0"
         style="stop-color:#f6f5f4;stop-opacity:0.43700787" />
      <stop
         id="stop912"
         offset="1"
         style="stop-color:#deddda;stop-opacity:0;" />
    </linearGradient>
    <radialGradient
       gradientTransform="matrix(2.6086955,0,0,1.8410361,-102.95652,-748.94671)"
       gradientUnits="userSpaceOnUse"
       r="46"
       fy="296"
       fx="64.000008"
       cy="296"
       cx="64.000008"
       id="radialGradient916"
       xlink:href="#linearGradient914"
       inkscape:collect="always" />
    <filter
       style="color-interpolation-filters:sRGB;"
       inkscape:label="Drop Shadow"
       id="filter1507"
       x="-0.042822424"
       y="-0.044695823"
       width="1.0856448"
       height="1.1593469">
      <feFlood
         flood-opacity="0.282353"
         flood-color="rgb(0,0,0)"
         result="flood"
         id="feFlood1497" />
      <feComposite
         in="flood"
         in2="SourceGraphic"
         operator="in"
         result="composite1"
         id="feComposite1499" />
      <feGaussianBlur
         in="composite1"
         stdDeviation="1.99838"
         result="blur"
         id="feGaussianBlur1501" />
      <feOffset
         dx="0"
         dy="7.50659"
         result="offset"
         id="feOffset1503" />
      <feComposite
         in="SourceGraphic"
         in2="offset"
         operator="over"
         result="composite2"
         id="feComposite1505" />
    </filter>
    <clipPath
       clipPathUnits="userSpaceOnUse"
       id="clipPath11543">
      <rect
         style="fill:#f0c04e;fill-opacity:1;stroke:none;stroke-width:0.529037"
         id="rect11545"
         width="541.86664"
         height="541.86664"
         x="1.4746095e-06"
         y="6.4330168e-05"
         rx="79.375"
         ry="79.375" />
    </clipPath>
    <filter
       style="color-interpolation-filters:sRGB;"
       inkscape:label="Drop Shadow"
       id="filter2761"
       x="-0.11455735"
       y="-0.11572297"
       width="1.2291147"
       height="1.2973801">
      <feFlood
         flood-opacity="1"
         flood-color="rgb(255,170,170)"
         result="flood"
         id="feFlood2751" />
      <feComposite
         in="flood"
         in2="SourceGraphic"
         operator="in"
         result="composite1"
         id="feComposite2753" />
      <feGaussianBlur
         in="composite1"
         stdDeviation="19.0596"
         result="blur"
         id="feGaussianBlur2755" />
      <feOffset
         dx="0"
         dy="26.0625"
         result="offset"
         id="feOffset2757" />
      <feComposite
         in="SourceGraphic"
         in2="offset"
         operator="over"
         result="composite2"
         id="feComposite2759" />
    </filter>
  </defs>
  <g
     inkscape:label="Layer 1"
     inkscape:groupmode="layer"
     id="layer1">
    <rect
       style="fill:#ffaaaa;fill-opacity:1;stroke:none;stroke-width:0.529037"
       id="rect53"
       width="541.86664"
       height="541.86664"
       x="2.9492187e-06"
       y="3.9968629e-05"
       rx="79.375"
       ry="79.375" />
    <rect
       style="fill:#ffd5d5;fill-opacity:1;stroke:none;stroke-width:0.515959;filter:url(#filter24873-3)"
       id="rect52"
       width="541.86664"
       height="515.40833"
       x="2.9492187e-06"
       y="3.9968629e-05"
       rx="79.375"
       ry="75.499268" />
    <g
       inkscape:groupmode="layer"
       id="layer2-6"
       inkscape:label="baseplate"
       style="display:none"
       sodipodi:insensitive="true"
       transform="matrix(1.7058263,0,0,1.7058263,64.318546,-47.554494)">
      <text
         xml:space="preserve"
         style="font-style:normal;font-variant:normal;font-weight:normal;font-stretch:normal;font-size:5.33333px;line-height:125%;font-family:Cantarell;-inkscape-font-specification:'Cantarell, Normal';text-align:start;writing-mode:lr-tb;text-anchor:start;display:inline;fill:#000000;fill-opacity:1;stroke:none;stroke-width:0.332649;enable-background:new"
         x="7.9499588"
         y="148.65199"
         id="context"
         inkscape:label="context"><tspan
           sodipodi:role="line"
           id="tspan2716"
           x="7.9499588"
           y="148.65199"
           style="font-size:5.33333px;stroke-width:0.332649">apps</tspan></text>
      <text
         inkscape:label="icon-name"
         id="text3021"
         y="157.23398"
         x="7.7533054"
         style="font-style:normal;font-variant:normal;font-weight:bold;font-stretch:normal;font-size:5.33333px;line-height:125%;font-family:Cantarell;-inkscape-font-specification:'Cantarell, Bold';text-align:start;writing-mode:lr-tb;text-anchor:start;display:inline;fill:#000000;fill-opacity:1;stroke:none;stroke-width:0.332649;enable-background:new"
         xml:space="preserve"><tspan
           y="157.23398"
           x="7.7533054"
           id="tspan3023"
           sodipodi:role="line"
           style="font-size:5.33333px;stroke-width:0.332649">org.gnome.Lollypop</tspan></text>
      <g
         style="display:inline;fill:#000000;enable-background:new"
         transform="matrix(7.9911709,0,0,8.0036407,-167.7909,-4846.0776)"
         id="g12027"
         inkscape:export-xdpi="12"
         inkscape:export-ydpi="12" />
      <rect
         style="display:inline;overflow:visible;visibility:visible;fill:#f0f0f0;fill-opacity:1;fill-rule:nonzero;stroke:none;stroke-width:0.5;marker:none;enable-background:accumulate"
         id="rect13805"
         width="128"
         height="128"
         x="9.2651362e-08"
         y="172"
         inkscape:label="512x512" />
      <g
         id="g883"
         style="fill:none;fill-opacity:0.25098;stroke:#a579b3;stroke-opacity:1"
         transform="translate(-24,24)" />
      <g
         id="g900"
         style="fill:none;fill-opacity:0.25098;stroke:#a579b3;stroke-opacity:1"
         transform="translate(-24,24)" />
      <g
         id="g1168"
         transform="matrix(0.25,0,0,0.25,6.9488522e-8,225)">
        <circle
           cx="256"
           cy="44"
           r="240"
           id="path1142"
           style="opacity:0.1;fill:#2864b0;fill-opacity:1;stroke:none;stroke-width:1;stroke-linecap:butt;stroke-linejoin:miter;stroke-miterlimit:4;stroke-dasharray:none;stroke-dashoffset:0;stroke-opacity:1;marker:none;marker-start:none;marker-mid:none;marker-end:none;paint-order:normal" />
        <rect
           ry="32"
           rx="32"
           y="-180"
           x="96"
           height="448"
           width="319.99979"
           id="rect1110"
           style="opacity:0.1;fill:#2864b0;fill-opacity:1;stroke:none;stroke-width:1;stroke-linecap:butt;stroke-linejoin:miter;stroke-miterlimit:4;stroke-dasharray:none;stroke-dashoffset:0;stroke-opacity:1;marker:none;marker-start:none;marker-mid:none;marker-end:none;paint-order:normal" />
        <rect
           ry="32"
           rx="32"
           y="-164"
           x="48"
           height="416"
           width="416"
           id="rect1110-8"
           style="display:inline;opacity:0.1;fill:#2864b0;fill-opacity:1;stroke:none;stroke-width:1;stroke-linecap:butt;stroke-linejoin:miter;stroke-miterlimit:4;stroke-dasharray:none;stroke-dashoffset:0;stroke-opacity:1;marker:none;marker-start:none;marker-mid:none;marker-end:none;paint-order:normal;enable-background:new" />
        <rect
           ry="32"
           rx="32"
           y="-116"
           x="32"
           height="320"
           width="448"
           id="rect1110-8-9"
           style="display:inline;opacity:0.1;fill:#2864b0;fill-opacity:1;stroke:none;stroke-width:1;stroke-linecap:butt;stroke-linejoin:miter;stroke-miterlimit:4;stroke-dasharray:none;stroke-dashoffset:0;stroke-opacity:1;marker:none;marker-start:none;marker-mid:none;marker-end:none;paint-order:normal;enable-background:new" />
      </g>
    </g>
    <g
       inkscape:groupmode="layer"
       id="layer9"
       inkscape:label="hires"
       style="display:inline"
       transform="matrix(1.7058263,0,0,1.7058263,64.318546,-47.554494)" />
    <g
       id="g1227"
       transform="translate(-2.6195728e-6,-13.22916)"
       style="filter:url(#filter2761)">
      <circle
         r="116.9409"
         cy="186.70592"
         cx="121.12299"
         id="circle911"
         style="display:inline;opacity:1;fill:#e73434;fill-opacity:1;stroke:none;stroke-width:15.5921;stroke-linejoin:round;stroke-miterlimit:4;stroke-dasharray:1.94901, 0.974507;stroke-dashoffset:0;stroke-opacity:1;enable-background:new"
         transform="matrix(1.7058263,0,0,1.7058263,64.318547,-47.554494)" />
      <path
         inkscape:connector-curvature="0"
         style="display:inline;opacity:1;fill:#f6f5f4;fill-opacity:1;stroke:none;stroke-width:15.7259;stroke-opacity:1;enable-background:new"
         d="m 98.761268,71.922978 c -3.006408,0.552436 -5.990675,1.224236 -8.94468,2.008264 -3.760457,1.042592 -7.467418,2.277177 -11.104874,3.69078 -3.636731,1.412565 -7.203963,3.006412 -10.681519,4.776248 -3.47711,1.77018 -6.855786,3.710087 -10.13876,5.818417 -3.284141,2.108752 -6.463023,4.390878 -9.520014,6.817048 -3.056714,2.425394 -5.993384,4.999905 -8.792715,7.718045 -0.360149,0.38126 -0.709827,0.75703 -1.063807,1.1398 2.510715,17.2321 7.857991,33.13772 22.839346,50.20535 A 68.083831,68.083831 0 0 1 79.634403,132.77731 C 77.611957,108.8473 86.046643,90.083515 98.761268,71.922978 Z m 52.734582,1.899673 C 137.84158,84.61668 126.75845,97.18118 119.473,118.67638 a 68.083831,68.083831 0 0 1 1.64999,-0.0556 68.083831,68.083831 0 0 1 25.98736,5.17787 c 19.6847,-13.68551 40.12421,-15.76761 62.1786,-13.85114 -1.3549,-1.63107 -2.75832,-3.23223 -4.20096,-4.78721 -2.71874,-2.79948 -5.58013,-5.454103 -8.56477,-7.967751 -2.98428,-2.513878 -6.09342,-4.885201 -9.31376,-7.088391 -3.22056,-2.203393 -6.54048,-4.240758 -9.96506,-6.111541 -3.42443,-1.870704 -6.94625,-3.571531 -10.54041,-5.091057 -3.59449,-1.519844 -7.25753,-2.852795 -10.98547,-4.005537 -1.39652,-0.38462 -2.81186,-0.74316 -4.22267,-1.074669 z M 10.551898,148.71274 c -0.432402,1.12909 -0.8387205,2.26729 -1.2374976,3.40855 -1.1499219,3.72754 -2.1233482,7.50884 -2.8983367,11.33281 -0.7750995,3.82402 -1.3581923,7.68935 -1.7476877,11.57157 -0.3890507,3.88302 -0.5861822,7.77774 -0.5861822,11.68025 -5.003e-4,2.76226 0.081314,5.52731 0.2930664,8.28249 0.2756701,3.89291 0.7513448,7.76958 1.4111749,11.61506 0.6118095,3.44682 1.3837531,6.85835 2.3013008,10.23646 16.1984471,6.45274 32.6607511,9.76916 54.9707451,5.3082 A 68.083831,68.083831 0 0 1 53.712156,195.68314 C 31.976966,185.47691 19.926313,168.79816 10.55187,148.71271 Z m 188.717702,0.62961 c -6.47596,-0.12961 -13.06266,0.51355 -20.09299,1.89968 a 68.083831,68.083831 0 0 1 9.35719,26.4975 c 21.73552,10.20623 33.78564,26.87404 43.16029,46.9596 0.43241,-1.12752 0.83871,-2.26742 1.23749,-3.40853 1.14991,-3.72776 2.12334,-7.5085 2.89834,-11.33281 0.77514,-3.82362 1.35818,-7.67852 1.74767,-11.56078 0.38907,-3.88313 0.58619,-7.78897 0.58619,-11.69109 4.5e-4,-2.76248 -0.0831,-5.5164 -0.29311,-8.27166 -0.27567,-3.89273 -0.75137,-7.76945 -1.41119,-11.61505 -0.61497,-3.46255 -1.3765,-6.8977 -2.3013,-10.2907 -12.59057,-4.48736 -23.59315,-6.96047 -34.88863,-7.18616 z m -18.37786,69.97256 a 68.083831,68.083831 0 0 1 -18.28017,21.31962 c 2.0224,23.93001 -6.41245,42.69389 -19.12686,60.85433 3.00636,-0.55244 5.99079,-1.22255 8.94469,-2.00823 3.76023,-1.04258 7.46747,-2.27726 11.10487,-3.69082 3.63696,-1.41245 7.20407,-3.0065 10.68152,-4.77624 3.47711,-1.76988 6.85573,-3.70994 10.13876,-5.81842 3.28392,-2.10821 6.46297,-4.37987 9.52001,-6.80615 3.05655,-2.42524 5.99338,-5.0108 8.79269,-7.72894 0.36018,-0.38294 0.72076,-0.75704 1.07469,-1.13981 -2.51073,-17.23242 -7.86907,-33.13781 -22.8502,-50.20534 z M 95.135634,249.61178 C 75.4512,263.2975 55.022137,265.39065 32.96789,263.47391 c 1.354896,1.63257 2.747619,3.22123 4.190107,4.77625 2.718961,2.799 5.580128,5.46506 8.564758,7.9786 2.984514,2.51392 6.093534,4.87414 9.31376,7.07756 3.220504,2.20324 6.551511,4.24086 9.975933,6.11149 3.424532,1.87093 6.935329,3.57159 10.529545,5.0911 3.594326,1.51986 7.26844,2.86329 10.996321,4.01639 1.407754,0.38738 2.821571,0.7416 4.244385,1.07467 13.648661,-10.79671 24.724361,-23.37338 32.001141,-44.87542 a 68.083831,68.083831 0 0 1 -1.66085,0.065 68.083831,68.083831 0 0 1 -25.987356,-5.17791 z"
         id="path1047-3"
         transform="matrix(1.7058263,0,0,1.7058263,64.318547,-47.554494)" />
      <circle
         style="display:inline;opacity:1;fill:#f6f5f4;fill-opacity:1;stroke:none;stroke-width:14.0329;stroke-linejoin:round;stroke-miterlimit:4;stroke-dasharray:1.75411, 0.877056;stroke-dashoffset:0;stroke-opacity:1;enable-background:new"
         id="circle913"
         cx="121.12299"
         cy="186.70592"
         r="70.164536"
         transform="matrix(1.7058263,0,0,1.7058263,64.318547,-47.554494)" />
      <path
         style="display:inline;opacity:0.2;fill:#000000;fill-opacity:1;stroke:none;stroke-width:15.5921;stroke-linejoin:round;stroke-miterlimit:4;stroke-dasharray:1.94901, 0.974507;stroke-dashoffset:0;stroke-opacity:1;enable-background:new"
         d="M 237.94206,183.28753 A 116.9409,116.9409 0 0 1 121.12299,297.79976 116.9409,116.9409 0 0 1 4.3039168,184.27727 116.9409,116.9409 0 0 0 4.1821037,186.70592 116.9409,116.9409 0 0 0 121.12299,303.6468 116.9409,116.9409 0 0 0 238.06387,186.70592 a 116.9409,116.9409 0 0 0 -0.12181,-3.41839 z"
         id="circle1110"
         inkscape:connector-curvature="0"
         transform="matrix(1.7058263,0,0,1.7058263,64.318547,-47.554494)" />
      <g
         style="display:inline"
         id="g1140"
         inkscape:label="media-playback-start"
         transform="matrix(9.9740418,0,0,9.9740418,-201.17133,-4666.2172)">
        <rect
           y="487"
           x="40"
           height="16"
           width="16"
           id="rect1136"
           style="color:#bebebe;display:inline;overflow:visible;visibility:visible;fill:none;stroke:none;stroke-width:1;marker:none" />
        <path
           sodipodi:nodetypes="ccccccsccccc"
           inkscape:connector-curvature="0"
           id="path1138"
           transform="translate(-39.99995,-119)"
           d="m 84,609 v 10 H 84.90625 85 c 0.174914,10e-4 0.347782,-0.0388 0.5,-0.125 l 7,-4 c 0.310699,-0.17189 0.46875,-0.52345 0.46875,-0.875 0,-0.35155 -0.158051,-0.70311 -0.46875,-0.875 l -7,-4 C 85.347782,609.03875 85.174914,608.99869 85,609 h -0.09375 z"
           style="color:#000000;font-style:normal;font-variant:normal;font-weight:normal;font-stretch:normal;font-size:medium;line-height:normal;font-family:'Bitstream Vera Sans';-inkscape-font-specification:'Bitstream Vera Sans';text-indent:0;text-align:start;text-decoration:none;text-decoration-line:none;letter-spacing:normal;word-spacing:normal;text-transform:none;writing-mode:lr-tb;direction:ltr;text-anchor:start;display:inline;overflow:visible;visibility:visible;fill:#e73434;fill-opacity:1;fill-rule:nonzero;stroke:none;stroke-width:2;marker:none;enable-background:accumulate" />
      </g>
    </g>
  </g>
  <g
     inkscape:groupmode="layer"
     id="layer2"
     inkscape:label="Layer 2" />
</svg>
